<?xml version="1.0" encoding="UTF-8"?>
<svg id="Ebene_2" data-name="Ebene 2" xmlns="http://www.w3.org/2000/svg" viewBox="0 0 355.21 29.86">
  <defs>
    <style>
      .esc-fill {
        fill: #fff;
      }
    </style>
  </defs>
  <g id="Ebene_1-2" data-name="Ebene 1">
    <g>
      <path class="esc-fill" d="M16.85,17.79H7.34v5.22c0,1.09,.08,1.79,.24,2.11,.16,.32,.46,.47,.91,.47,.56,0,.93-.21,1.12-.63,.19-.42,.28-1.23,.28-2.43v-3.18h6.96v1.78c0,1.49-.09,2.64-.28,3.44-.19,.8-.63,1.65-1.32,2.56s-1.57,1.59-2.63,2.04c-1.06,.45-2.39,.68-3.99,.68s-2.92-.22-4.11-.67c-1.19-.45-2.11-1.06-2.77-1.84-.66-.78-1.12-1.64-1.37-2.58-.25-.94-.38-2.31-.38-4.1v-7.03c0-2.11,.28-3.77,.85-4.99,.57-1.22,1.5-2.15,2.8-2.8,1.3-.65,2.79-.97,4.47-.97,2.06,0,3.76,.39,5.1,1.17,1.34,.78,2.28,1.82,2.82,3.11,.54,1.29,.81,3.11,.81,5.44v3.2Zm-7.36-3.93v-1.76c0-1.25-.07-2.05-.2-2.42-.13-.36-.41-.55-.82-.55-.51,0-.82,.15-.95,.46-.12,.31-.18,1.14-.18,2.5v1.76h2.14Z"/>
      <path class="esc-fill" d="M34.24,13.01h-6.51v-1.31c0-1.11-.06-1.82-.19-2.12-.13-.3-.45-.45-.95-.45-.41,0-.72,.14-.93,.41-.21,.27-.31,.68-.31,1.23,0,.74,.05,1.28,.15,1.63,.1,.35,.41,.72,.93,1.14,.51,.41,1.57,1.01,3.17,1.8,2.13,1.04,3.53,2.02,4.2,2.94,.67,.92,1,2.26,1,4.02,0,1.96-.25,3.44-.76,4.44-.51,1-1.36,1.77-2.55,2.31-1.19,.54-2.63,.81-4.32,.81-1.87,0-3.46-.29-4.79-.87-1.33-.58-2.24-1.37-2.74-2.36-.5-.99-.75-2.5-.75-4.51v-1.16h6.51v1.53c0,1.3,.08,2.14,.25,2.53s.49,.58,.97,.58c.52,0,.88-.13,1.09-.39,.21-.26,.31-.81,.31-1.64,0-1.15-.13-1.87-.4-2.16-.28-.29-1.7-1.15-4.27-2.58-2.16-1.21-3.47-2.31-3.94-3.3-.47-.99-.71-2.16-.71-3.52,0-1.93,.25-3.35,.76-4.26,.51-.91,1.37-1.62,2.59-2.12,1.22-.5,2.63-.75,4.24-.75s2.96,.2,4.08,.61c1.12,.41,1.98,.94,2.58,1.61,.6,.67,.96,1.28,1.09,1.85,.13,.57,.19,1.46,.19,2.67v1.4Z"/>
      <path class="esc-fill" d="M53,14.41h-6.93v-2.78c0-.97-.08-1.63-.24-1.97-.16-.35-.45-.52-.87-.52s-.71,.15-.85,.45c-.15,.3-.22,.98-.22,2.04v11.38c0,.86,.11,1.51,.33,1.94,.22,.43,.54,.65,.96,.65,.5,0,.83-.22,1.01-.67,.18-.45,.26-1.3,.26-2.54v-2.87h6.54c-.01,1.93-.08,3.37-.21,4.33-.13,.96-.53,1.95-1.22,2.96-.68,1.01-1.58,1.77-2.68,2.29-1.1,.51-2.47,.77-4.09,.77-2.07,0-3.71-.35-4.93-1.06-1.21-.71-2.07-1.7-2.57-2.98-.5-1.28-.75-3.09-.75-5.44v-6.85c0-2.05,.21-3.59,.62-4.63,.41-1.04,1.29-1.97,2.64-2.79,1.35-.82,2.98-1.23,4.91-1.23s3.55,.41,4.91,1.22c1.36,.81,2.26,1.84,2.71,3.07,.45,1.24,.67,2.99,.67,5.25Z"/>
      <path class="esc-fill" d="M69,5.31l-.13,2.29c.57-.91,1.25-1.59,2.04-2.05,.79-.46,1.68-.68,2.69-.68,1.96,0,3.51,.91,4.63,2.73,.62-.91,1.31-1.59,2.09-2.05,.78-.46,1.64-.68,2.58-.68,1.25,0,2.28,.3,3.1,.91,.82,.61,1.34,1.35,1.57,2.23,.23,.88,.35,2.31,.35,4.28V29.43h-7.13V13.7c0-2.06-.07-3.34-.21-3.83-.14-.49-.46-.74-.97-.74s-.86,.24-1.01,.73c-.15,.48-.23,1.76-.23,3.84v15.72h-7.13V14.1c0-2.36-.06-3.78-.17-4.25-.12-.47-.43-.71-.95-.71-.33,0-.61,.12-.84,.37-.23,.25-.36,.55-.38,.91-.02,.36-.04,1.12-.04,2.28V29.43h-7.13V5.31h7.25Z"/>
      <path class="esc-fill" d="M107.08,17.79h-9.51v5.22c0,1.09,.08,1.79,.24,2.11,.16,.32,.46,.47,.91,.47,.56,0,.93-.21,1.12-.63,.19-.42,.28-1.23,.28-2.43v-3.18h6.96v1.78c0,1.49-.09,2.64-.28,3.44-.19,.8-.63,1.65-1.32,2.56-.69,.91-1.57,1.59-2.63,2.04-1.06,.45-2.39,.68-3.99,.68s-2.92-.22-4.11-.67c-1.19-.45-2.11-1.06-2.77-1.84-.66-.78-1.12-1.64-1.37-2.58-.25-.94-.38-2.31-.38-4.1v-7.03c0-2.11,.28-3.77,.85-4.99,.57-1.22,1.5-2.15,2.8-2.8,1.3-.65,2.79-.97,4.47-.97,2.06,0,3.76,.39,5.1,1.17,1.34,.78,2.28,1.82,2.82,3.11,.54,1.29,.81,3.11,.81,5.44v3.2Zm-7.36-3.93v-1.76c0-1.25-.07-2.05-.2-2.42-.13-.36-.41-.55-.82-.55-.51,0-.82,.15-.95,.46-.12,.31-.18,1.14-.18,2.5v1.76h2.14Z"/>
      <path class="esc-fill" d="M126.18,0V29.43h-7.34v-1.75c-.7,.73-1.44,1.28-2.22,1.64-.78,.36-1.59,.55-2.44,.55-1.14,0-2.13-.3-2.96-.9s-1.37-1.29-1.61-2.08c-.24-.79-.35-2.07-.35-3.85V11.74c0-1.85,.12-3.17,.35-3.94,.24-.78,.78-1.46,1.63-2.04,.85-.59,1.86-.88,3.04-.88,.91,0,1.74,.16,2.5,.49,.76,.33,1.45,.82,2.06,1.48V0h7.34Zm-7.34,11.38c0-.88-.08-1.48-.23-1.78-.15-.3-.45-.45-.9-.45s-.73,.14-.88,.41c-.15,.27-.23,.88-.23,1.83v11.81c0,.98,.07,1.63,.22,1.94,.15,.31,.42,.46,.84,.46,.47,0,.79-.17,.95-.52,.16-.35,.24-1.19,.24-2.54V11.38Z"/>
      <path class="esc-fill" d="M136.37,0V3.84h-7.56V0h7.56Zm0,5.31V29.43h-7.56V5.31h7.56Z"/>
      <path class="esc-fill" d="M155.64,17.79h-9.51v5.22c0,1.09,.08,1.79,.24,2.11,.16,.32,.46,.47,.91,.47,.56,0,.93-.21,1.12-.63,.19-.42,.28-1.23,.28-2.43v-3.18h6.96v1.78c0,1.49-.09,2.64-.28,3.44-.19,.8-.63,1.65-1.32,2.56-.69,.91-1.57,1.59-2.63,2.04-1.06,.45-2.39,.68-3.99,.68s-2.92-.22-4.11-.67c-1.19-.45-2.11-1.06-2.77-1.84-.66-.78-1.12-1.64-1.37-2.58-.25-.94-.38-2.31-.38-4.1v-7.03c0-2.11,.28-3.77,.85-4.99,.57-1.22,1.5-2.15,2.8-2.8,1.3-.65,2.79-.97,4.47-.97,2.06,0,3.76,.39,5.1,1.17,1.34,.78,2.28,1.82,2.82,3.11,.54,1.29,.81,3.11,.81,5.44v3.2Zm-7.36-3.93v-1.76c0-1.25-.07-2.05-.2-2.42-.13-.36-.41-.55-.82-.55-.51,0-.82,.15-.95,.46-.12,.31-.18,1.14-.18,2.5v1.76h2.14Z"/>
      <path class="esc-fill" d="M165.51,5.31l-.13,2.22c.53-.89,1.18-1.55,1.95-1.99,.77-.44,1.66-.66,2.66-.66,1.26,0,2.29,.3,3.09,.89,.8,.59,1.31,1.34,1.54,2.24,.23,.9,.35,2.41,.35,4.52V29.43h-7.34V12.72c0-1.66-.05-2.67-.16-3.04-.11-.36-.41-.55-.91-.55-.52,0-.85,.21-.98,.63-.13,.42-.2,1.54-.2,3.35V29.43h-7.34V5.31h7.47Z"/>
      <path class="esc-fill" d="M199.88,5.31l-2.98,9.61,3.87,14.51h-7.06l-2.29-10.51v10.51h-7.35V0h7.34V12.35s2.3-7.05,2.3-7.05h6.17Z"/>
      <path class="esc-fill" d="M218.68,5.31V29.43h-7.47l.13-2c-.51,.81-1.14,1.42-1.88,1.83-.75,.41-1.6,.61-2.57,.61-1.1,0-2.02-.19-2.74-.58-.73-.39-1.26-.9-1.61-1.54-.35-.64-.56-1.31-.65-2.01-.08-.7-.13-2.08-.13-4.15V5.31h7.34V21.72c0,1.88,.06,2.99,.17,3.34,.11,.35,.43,.53,.94,.53,.55,0,.87-.18,.97-.55,.1-.36,.15-1.53,.15-3.51V5.31h7.34Z"/>
      <path class="esc-fill" d="M228.78,5.31l-.13,2.22c.53-.89,1.18-1.55,1.95-1.99,.77-.44,1.66-.66,2.66-.66,1.26,0,2.29,.3,3.09,.89,.8,.59,1.31,1.34,1.54,2.24,.23,.9,.35,2.41,.35,4.52V29.43h-7.34V12.72c0-1.66-.05-2.67-.16-3.04-.11-.36-.41-.55-.91-.55-.52,0-.85,.21-.98,.63-.13,.42-.2,1.54-.2,3.35V29.43h-7.34V5.31h7.47Z"/>
      <path class="esc-fill" d="M255.77,13.01h-6.51v-1.31c0-1.11-.06-1.82-.19-2.12-.13-.3-.45-.45-.95-.45-.41,0-.72,.14-.93,.41-.21,.27-.31,.68-.31,1.23,0,.74,.05,1.28,.15,1.63,.1,.35,.41,.72,.93,1.14,.51,.41,1.57,1.01,3.17,1.8,2.13,1.04,3.53,2.02,4.2,2.94,.67,.92,1,2.26,1,4.02,0,1.96-.25,3.44-.76,4.44-.51,1-1.36,1.77-2.55,2.31-1.19,.54-2.63,.81-4.32,.81-1.87,0-3.46-.29-4.79-.87-1.33-.58-2.24-1.37-2.74-2.36-.5-.99-.75-2.5-.75-4.51v-1.16h6.51v1.53c0,1.3,.08,2.14,.25,2.53,.16,.39,.49,.58,.97,.58,.52,0,.88-.13,1.09-.39,.21-.26,.31-.81,.31-1.64,0-1.15-.13-1.87-.4-2.16-.28-.29-1.7-1.15-4.27-2.58-2.16-1.21-3.47-2.31-3.94-3.3-.47-.99-.71-2.16-.71-3.52,0-1.93,.25-3.35,.76-4.26,.51-.91,1.37-1.62,2.59-2.12,1.22-.5,2.63-.75,4.24-.75s2.96,.2,4.08,.61c1.12,.41,1.98,.94,2.58,1.61,.6,.67,.96,1.28,1.09,1.85,.13,.57,.19,1.46,.19,2.67v1.4Z"/>
      <path class="esc-fill" d="M266.04,2.09v3.8h1.98v3.82h-1.98v12.91c0,1.59,.08,2.47,.25,2.65,.16,.18,.85,.27,2.04,.27v3.89h-2.96c-1.67,0-2.87-.07-3.58-.21-.72-.14-1.35-.46-1.89-.96-.55-.5-.88-1.08-1.02-1.73-.13-.65-.2-2.17-.2-4.57V9.71h-1.58v-3.82h1.58V2.09h7.36Z"/>
      <path class="esc-fill" d="M283.76,0V29.43h-7.56V0h7.56Z"/>
      <path class="esc-fill" d="M292.96,14.65h-6.89v-1.62c0-1.87,.21-3.3,.65-4.32,.43-1.01,1.29-1.91,2.59-2.68,1.3-.78,2.98-1.16,5.05-1.16,2.48,0,4.36,.44,5.62,1.32,1.26,.88,2.02,1.96,2.27,3.24,.25,1.28,.38,3.91,.38,7.9v12.11h-7.14v-2.15c-.45,.86-1.03,1.51-1.74,1.94-.71,.43-1.55,.65-2.54,.65-1.28,0-2.46-.36-3.54-1.08-1.07-.72-1.61-2.3-1.61-4.73v-1.98c0-1.81,.28-3.04,.85-3.69,.57-.65,1.98-1.42,4.24-2.29,2.41-.95,3.7-1.58,3.87-1.91,.17-.33,.25-.99,.25-2,0-1.26-.09-2.08-.28-2.46-.19-.38-.5-.57-.94-.57-.5,0-.81,.16-.93,.48-.12,.32-.18,1.15-.18,2.5v2.53Zm2.33,3.31c-1.18,.86-1.86,1.58-2.04,2.16-.19,.58-.28,1.42-.28,2.51,0,1.25,.08,2.05,.25,2.42,.16,.36,.49,.55,.97,.55s.76-.14,.9-.43c.14-.28,.21-1.03,.21-2.24v-4.96Z"/>
      <path class="esc-fill" d="M312.5,0V6.97c.61-.7,1.28-1.23,2.03-1.58,.75-.35,1.55-.52,2.43-.52,1.01,0,1.88,.16,2.62,.47,.74,.32,1.3,.76,1.69,1.33,.39,.57,.62,1.13,.7,1.67,.08,.55,.12,1.71,.12,3.49v10.87c0,1.77-.12,3.09-.35,3.95-.24,.87-.79,1.62-1.66,2.25s-1.91,.95-3.11,.95c-.86,0-1.66-.19-2.41-.56-.75-.38-1.43-.94-2.04-1.69l-.47,1.82h-6.87V0h7.34Zm2.24,12.16c0-1.25-.08-2.06-.24-2.44-.16-.38-.47-.57-.93-.57s-.74,.17-.87,.5c-.13,.33-.2,1.17-.2,2.52v10.4c0,1.3,.08,2.13,.23,2.49,.15,.36,.45,.55,.9,.55s.76-.19,.9-.56c.14-.38,.21-1.28,.21-2.71V12.16Z"/>
      <path class="esc-fill" d="M341.11,13.78v5.91c0,2.17-.11,3.76-.33,4.77-.22,1.01-.68,1.96-1.4,2.84-.72,.88-1.63,1.53-2.75,1.94-1.12,.42-2.41,.63-3.86,.63-1.62,0-3-.18-4.13-.54-1.13-.36-2-.9-2.63-1.62-.62-.72-1.07-1.59-1.34-2.62-.27-1.02-.4-2.56-.4-4.61v-6.18c0-2.24,.24-3.99,.73-5.25,.48-1.26,1.36-2.27,2.62-3.04,1.26-.76,2.87-1.15,4.83-1.15,1.65,0,3.06,.25,4.24,.74,1.18,.49,2.09,1.13,2.74,1.92,.64,.79,1.08,1.6,1.32,2.44,.24,.84,.35,2.11,.35,3.82Zm-7.34-1.82c0-1.24-.07-2.01-.2-2.34-.13-.32-.42-.48-.85-.48s-.73,.16-.87,.48c-.15,.32-.22,1.1-.22,2.34v10.89c0,1.14,.07,1.88,.22,2.23s.43,.52,.85,.52,.72-.16,.86-.47c.14-.32,.21-.99,.21-2.04V11.96Z"/>
      <path class="esc-fill" d="M350.87,5.31l-.29,3.17c1.07-2.27,2.61-3.47,4.63-3.61V13.36c-1.35,0-2.33,.18-2.96,.55-.63,.36-1.02,.87-1.16,1.52-.15,.65-.22,2.14-.22,4.48v9.52h-7.34V5.31h7.34Z"/>
    </g>
  </g>
</svg>
