<svg width="131" height="14" viewBox="0 0 131 14" fill="none" xmlns="http://www.w3.org/2000/svg">
<path d="M4.17225 6.16491V5.40861C4.17225 4.87345 4.14972 4.52405 4.10091 4.36925C4.0521 4.21445 3.95448 4.13484 3.80429 4.13484C3.62031 4.13484 3.50392 4.20118 3.45886 4.33387C3.41381 4.46655 3.39128 4.8248 3.39128 5.40861V6.16491H4.17225ZM6.85683 7.85442H3.38752V10.0968C3.38752 10.5656 3.41756 10.8663 3.47388 11.0035C3.5302 11.1406 3.64284 11.2069 3.80429 11.2069C4.00704 11.2069 4.14221 11.1184 4.21355 10.9371C4.28113 10.7558 4.31492 10.4108 4.31492 9.89332V8.52668H6.85308V9.29182C6.85308 9.93313 6.81928 10.4241 6.7517 10.769C6.68412 11.114 6.52267 11.4811 6.2711 11.8703C6.01954 12.2595 5.70039 12.5559 5.31366 12.7505C4.92693 12.9451 4.44258 13.0424 3.85686 13.0424C3.2899 13.0424 2.79053 12.9451 2.35875 12.7549C1.92696 12.5603 1.58904 12.2949 1.34874 11.9632C1.10844 11.6271 0.943239 11.26 0.849372 10.8531C0.755505 10.4506 0.710449 9.86237 0.710449 9.0928V6.06761C0.710449 5.16093 0.81558 4.44886 1.02209 3.92255C1.22859 3.40066 1.57027 2.99818 2.04335 2.71955C2.51644 2.44091 3.06087 2.3038 3.67288 2.3038C4.42381 2.3038 5.04333 2.47187 5.53144 2.808C6.01954 3.14413 6.36122 3.59084 6.56021 4.14369C6.75546 4.69654 6.85683 5.47937 6.85683 6.48335V7.85442Z" fill="white"/>
<path d="M13.206 5.7972H10.8331V5.2355C10.8331 4.75784 10.8105 4.45267 10.7617 4.3244C10.7167 4.19614 10.6003 4.13422 10.4125 4.13422C10.2624 4.13422 10.1497 4.19172 10.0746 4.31114C9.99953 4.42613 9.96198 4.60304 9.96198 4.83745C9.96198 5.15589 9.98075 5.3903 10.0183 5.53625C10.0558 5.6822 10.1685 5.84585 10.3562 6.02276C10.544 6.19967 10.9307 6.4562 11.5127 6.79675C12.2899 7.24345 12.8005 7.66804 13.0446 8.06167C13.2886 8.4553 13.4088 9.03469 13.4088 9.78656C13.4088 10.6313 13.3149 11.2682 13.1309 11.6972C12.9469 12.1262 12.6353 12.4579 12.1998 12.6879C11.7642 12.9223 11.2386 13.0373 10.6228 13.0373C9.94321 13.0373 9.36123 12.9135 8.87688 12.6614C8.39253 12.4093 8.05837 12.0732 7.87814 11.6441C7.69792 11.2196 7.60781 10.5694 7.60781 9.70695V9.20717H9.98075V9.86175C9.98075 10.419 10.0108 10.7817 10.0709 10.9453C10.1309 11.1134 10.2473 11.1974 10.4238 11.1974C10.6153 11.1974 10.7467 11.1399 10.8218 11.0294C10.8969 10.9188 10.9344 10.68 10.9344 10.3217C10.9344 9.82637 10.8856 9.51677 10.788 9.39294C10.6866 9.2691 10.1647 8.89758 9.22982 8.28281C8.4451 7.76092 7.9645 7.28768 7.79179 6.86309C7.61907 6.4385 7.53271 5.9343 7.53271 5.35049C7.53271 4.52343 7.62658 3.91308 7.81056 3.51945C7.99454 3.12583 8.30993 2.82508 8.75673 2.60836C9.19978 2.39606 9.71793 2.28992 10.3037 2.28992C10.8856 2.28992 11.385 2.37837 11.7943 2.55086C12.2035 2.72777 12.5189 2.95776 12.7367 3.24082C12.9544 3.5283 13.0896 3.79367 13.1347 4.03692C13.1797 4.28018 13.2023 4.66496 13.2023 5.18685V5.7972H13.206Z" fill="white"/>
<path d="M20.0514 6.39865H17.5245V5.20449C17.5245 4.78874 17.4944 4.50569 17.4381 4.35531C17.3818 4.20936 17.2729 4.13417 17.119 4.13417C16.965 4.13417 16.8599 4.20051 16.8073 4.32878C16.7548 4.45704 16.7285 4.74894 16.7285 5.20449V10.0961C16.7285 10.4676 16.7698 10.7418 16.8486 10.9276C16.9275 11.1134 17.0476 11.2062 17.2016 11.2062C17.3818 11.2062 17.5057 11.1089 17.5695 10.9187C17.6334 10.7241 17.6634 10.3615 17.6634 9.82631V8.59235H20.0514C20.0476 9.41941 20.0213 10.043 19.9763 10.4544C19.9312 10.8657 19.781 11.2947 19.5332 11.7281C19.2854 12.1616 18.9588 12.4933 18.557 12.7144C18.1553 12.9355 17.6559 13.0461 17.0664 13.0461C16.3117 13.0461 15.711 12.8957 15.2679 12.5906C14.8249 12.2854 14.5132 11.8564 14.3293 11.3079C14.1453 10.7595 14.0552 9.98111 14.0552 8.96829V6.02271C14.0552 5.14257 14.1303 4.47915 14.2805 4.03245C14.4306 3.58575 14.7498 3.18327 15.2416 2.83387C15.7335 2.48447 16.3305 2.30756 17.0326 2.30756C17.731 2.30756 18.328 2.48447 18.8236 2.82945C19.3192 3.17885 19.6496 3.6167 19.8111 4.15186C19.9688 4.67375 20.0514 5.42563 20.0514 6.39865Z" fill="white"/>
<path d="M25.885 2.48477L25.8399 3.47105C26.0464 3.08185 26.2942 2.78552 26.5833 2.59092C26.8687 2.39631 27.1991 2.29901 27.5633 2.29901C28.2805 2.29901 28.8437 2.68822 29.2529 3.47105C29.4782 3.08185 29.7335 2.78552 30.0151 2.59092C30.2967 2.39631 30.6121 2.29901 30.9575 2.29901C31.4118 2.29901 31.7911 2.42727 32.0877 2.68822C32.3881 2.94916 32.5795 3.26761 32.6621 3.64797C32.7448 4.0239 32.7898 4.63867 32.7898 5.48785V12.8562H30.1916V6.0982C30.1916 5.21364 30.1653 4.66521 30.1165 4.45292C30.0639 4.24062 29.9475 4.13447 29.7598 4.13447C29.5683 4.13447 29.4482 4.24062 29.3918 4.44849C29.3355 4.65636 29.3092 5.20479 29.3092 6.0982V12.8562H26.711V6.27069C26.711 5.25344 26.6885 4.64752 26.6472 4.44407C26.6059 4.24062 26.4895 4.1389 26.298 4.1389C26.1778 4.1389 26.0765 4.19197 25.9939 4.29812C25.9113 4.40427 25.8625 4.53695 25.8549 4.68732C25.8474 4.84212 25.8399 5.16941 25.8399 5.66919V12.8562H23.2417V2.48919H25.885V2.48477Z" fill="white"/>
<path d="M37.0929 6.16491V5.40861C37.0929 4.87345 37.0704 4.52405 37.0216 4.36925C36.9728 4.21445 36.8751 4.13484 36.7249 4.13484C36.541 4.13484 36.4246 4.20118 36.3795 4.33387C36.3345 4.46655 36.3119 4.8248 36.3119 5.40861V6.16491H37.0929ZM39.7775 7.85442H36.3082V10.0968C36.3082 10.5656 36.3382 10.8663 36.3945 11.0035C36.4509 11.1406 36.5635 11.2069 36.7249 11.2069C36.9277 11.2069 37.0629 11.1184 37.1342 10.9371C37.2018 10.7558 37.2356 10.4108 37.2356 9.89332V8.52668H39.7737V9.29182C39.7737 9.93313 39.7399 10.4241 39.6724 10.769C39.6048 11.114 39.4433 11.4811 39.1918 11.8703C38.9402 12.2595 38.621 12.5559 38.2343 12.7505C37.8476 12.9451 37.3632 13.0424 36.7775 13.0424C36.2106 13.0424 35.7112 12.9451 35.2794 12.7549C34.8476 12.5603 34.5097 12.2949 34.2694 11.9632C34.0291 11.6271 33.8639 11.26 33.77 10.8531C33.6762 10.4506 33.6311 9.86237 33.6311 9.0928V6.06761C33.6311 5.16093 33.7362 4.44886 33.9427 3.92255C34.1492 3.40066 34.4909 2.99818 34.964 2.71955C35.4371 2.44091 35.9815 2.3038 36.5935 2.3038C37.3445 2.3038 37.964 2.47187 38.4521 2.808C38.9402 3.14413 39.2819 3.59084 39.4809 4.14369C39.6761 4.69654 39.7775 5.47937 39.7775 6.48335V7.85442Z" fill="white"/>
<path d="M44.0691 5.0941C44.0691 4.71374 44.0428 4.45722 43.9865 4.32896C43.9302 4.2007 43.8213 4.13435 43.6561 4.13435C43.4984 4.13435 43.3895 4.19185 43.3332 4.31126C43.2768 4.42626 43.2506 4.69163 43.2506 5.09852V10.1759C43.2506 10.5961 43.2768 10.8747 43.3294 11.0074C43.382 11.1401 43.4833 11.2064 43.6335 11.2064C43.8063 11.2064 43.9189 11.1312 43.979 10.9853C44.0353 10.8393 44.0653 10.4722 44.0653 9.89726V5.0941H44.0691ZM46.7499 0.202484V12.8517H44.0691V12.0998C43.8138 12.4138 43.5434 12.6482 43.2581 12.803C42.9765 12.9578 42.6798 13.0374 42.3682 13.0374C41.9514 13.0374 41.591 12.9092 41.2869 12.6527C40.9827 12.3961 40.7875 12.0954 40.7011 11.7593C40.6148 11.4187 40.5735 10.8703 40.5735 10.1051V5.25332C40.5735 4.45722 40.6148 3.8911 40.7011 3.55939C40.7875 3.22768 40.9865 2.93135 41.2944 2.67925C41.6023 2.42715 41.974 2.29889 42.402 2.29889C42.7324 2.29889 43.0365 2.36966 43.3144 2.51119C43.5922 2.65272 43.84 2.86501 44.0691 3.14365V0.202484H46.7499Z" fill="white"/>
<path d="M47.7112 12.8516H50.4709V2.48453H47.7112V12.8516ZM47.7112 1.85207H50.4709V0.202362H47.7112V1.85207Z" fill="white"/>
<path d="M54.8148 6.16439V5.40809C54.8148 4.87293 54.7923 4.52353 54.7435 4.36873C54.6947 4.21393 54.5971 4.13432 54.4469 4.13432C54.2629 4.13432 54.1465 4.20067 54.1014 4.33335C54.0564 4.46603 54.0339 4.82428 54.0339 5.40809V6.16439H54.8148ZM57.4994 7.8539H54.0301V10.0963C54.0301 10.5651 54.0601 10.8658 54.1165 11.0029C54.1728 11.14 54.2854 11.2064 54.4469 11.2064C54.6496 11.2064 54.7848 11.1179 54.8561 10.9366C54.9237 10.7553 54.9575 10.4103 54.9575 9.89281V8.52616H57.4957V9.2913C57.4957 9.93261 57.4619 10.4235 57.3943 10.7685C57.3267 11.1135 57.1652 11.4806 56.9137 11.8698C56.6621 12.259 56.343 12.5553 55.9562 12.7499C55.5695 12.9445 55.0852 13.0418 54.4994 13.0418C53.9325 13.0418 53.4331 12.9445 53.0013 12.7544C52.5695 12.5598 52.2316 12.2944 51.9913 11.9627C51.751 11.6265 51.5858 11.2594 51.4919 10.8526C51.3981 10.4501 51.353 9.86185 51.353 9.09228V6.06709C51.353 5.16041 51.4582 4.44834 51.6647 3.92203C51.8712 3.40014 52.2128 2.99766 52.6859 2.71903C53.159 2.44039 53.7034 2.30328 54.3155 2.30328C55.0664 2.30328 55.6859 2.47135 56.174 2.80748C56.6621 3.14362 57.0038 3.59032 57.2028 4.14317C57.398 4.69602 57.4994 5.47885 57.4994 6.48283V7.8539Z" fill="white"/>
<path d="M61.1002 2.48419L61.0551 3.43951C61.2503 3.05915 61.4869 2.77167 61.7685 2.58149C62.0501 2.39131 62.373 2.29401 62.7409 2.29401C63.199 2.29401 63.5782 2.42227 63.8673 2.67879C64.1602 2.93531 64.3479 3.25817 64.4305 3.64296C64.5131 4.03216 64.5544 4.67789 64.5544 5.58457V12.8512H61.8736V5.67302C61.8736 4.96095 61.8548 4.52309 61.8135 4.3683C61.7722 4.2135 61.6634 4.13389 61.4831 4.13389C61.2916 4.13389 61.1752 4.22235 61.1264 4.40368C61.0776 4.58501 61.0551 5.06268 61.0551 5.84551V12.8512H58.3743V2.48419H61.1002Z" fill="white"/>
<path d="M67.8691 0.202362V12.8516H70.55L70.5537 8.33589L71.391 12.8516H73.9667L72.5512 6.61542L73.6401 2.48453H71.391L70.5537 5.51414L70.55 0.202362H67.8691Z" fill="white"/>
<path d="M80.5009 2.48453V12.8516H77.775L77.8201 11.9891C77.6361 12.3385 77.4033 12.5995 77.133 12.7764C76.8626 12.9489 76.5472 13.0373 76.1943 13.0373C75.7925 13.0373 75.4584 12.9533 75.1918 12.7852C74.9252 12.6172 74.73 12.396 74.6061 12.1218C74.4822 11.8476 74.4033 11.5601 74.3695 11.2594C74.3395 10.9586 74.3245 10.366 74.3245 9.47255V2.4801H77.0053V9.53447C77.0053 10.3394 77.0278 10.8215 77.0691 10.9719C77.1104 11.1223 77.2231 11.1974 77.4108 11.1974C77.6098 11.1974 77.7262 11.1178 77.7675 10.963C77.805 10.8082 77.8238 10.304 77.8238 9.45486V2.4801H80.5009V2.48453Z" fill="white"/>
<path d="M84.1878 2.48425L84.1427 3.43957C84.338 3.05921 84.5745 2.77173 84.8561 2.58155C85.1377 2.39137 85.4606 2.29407 85.8286 2.29407C86.2867 2.29407 86.6659 2.42233 86.955 2.67885C87.2478 2.93537 87.4356 3.25824 87.5182 3.64302C87.6008 4.0278 87.6421 4.67795 87.6421 5.58463V12.8513H84.9613V5.67309C84.9613 4.96101 84.9425 4.52316 84.9012 4.36836C84.8599 4.21356 84.751 4.13395 84.5708 4.13395C84.3793 4.13395 84.2629 4.22241 84.2141 4.40374C84.1653 4.58508 84.1427 5.06274 84.1427 5.84557V12.8513H81.4619V2.48425H84.1878Z" fill="white"/>
<path d="M94.0366 5.79708H91.6636V5.23538C91.6636 4.75772 91.6411 4.45254 91.5923 4.32428C91.5472 4.19602 91.4308 4.1341 91.2431 4.1341C91.0929 4.1341 90.9803 4.1916 90.9052 4.31101C90.8301 4.42601 90.7925 4.60292 90.7925 4.83733C90.7925 5.15577 90.8113 5.39018 90.8489 5.53613C90.8864 5.68208 90.9991 5.84573 91.1868 6.02264C91.3745 6.19955 91.7613 6.45607 92.3432 6.79663C93.1204 7.24333 93.6311 7.66792 93.8751 8.06155C94.1192 8.45518 94.2393 9.03457 94.2393 9.78644C94.2393 10.6312 94.1455 11.2681 93.9615 11.6971C93.7775 12.1261 93.4659 12.4578 93.0303 12.6878C92.5948 12.9222 92.0691 13.0372 91.4534 13.0372C90.7738 13.0372 90.1881 12.9134 89.7075 12.6613C89.2231 12.4092 88.8889 12.073 88.7087 11.644C88.5285 11.2194 88.4384 10.5693 88.4384 9.70683V9.20705H90.8113V9.86163C90.8113 10.4189 90.8414 10.7816 90.9014 10.9452C90.9615 11.1133 91.0779 11.1973 91.2544 11.1973C91.4459 11.1973 91.5773 11.1398 91.6524 11.0292C91.7275 10.9187 91.765 10.6798 91.765 10.3216C91.765 9.82624 91.7162 9.51665 91.6186 9.39281C91.5172 9.26898 90.9953 8.89746 90.0604 8.28269C89.2757 7.7608 88.7951 7.28756 88.6224 6.86297C88.4496 6.43838 88.3633 5.93418 88.3633 5.35037C88.3633 4.52331 88.4571 3.91296 88.6411 3.51933C88.8251 3.1257 89.1405 2.82495 89.5873 2.60824C90.0304 2.39594 90.5485 2.28979 91.1342 2.28979C91.7162 2.28979 92.2156 2.37825 92.6248 2.55074C93.0341 2.72765 93.3495 2.95764 93.5672 3.2407C93.785 3.52818 93.9202 3.79355 93.9652 4.0368C94.0103 4.28005 94.0328 4.66484 94.0328 5.18673V5.79708H94.0366Z" fill="white"/>
<path d="M97.7833 1.10468V2.73669H98.508V4.37755H97.7833V9.92374C97.7833 10.6048 97.8134 10.9852 97.8734 11.0648C97.9335 11.1444 98.1813 11.1798 98.6206 11.1798V12.8516H97.5393C96.9272 12.8516 96.4917 12.8207 96.2326 12.7632C95.9698 12.7013 95.7408 12.5641 95.5418 12.3474C95.3428 12.1307 95.2189 11.883 95.1701 11.6044C95.1213 11.3258 95.0987 10.6712 95.0987 9.64068V4.37755H94.5205V2.73669H95.0987V1.10468H97.7833Z" fill="white"/>
<path d="M104.248 0.202362H101.489V12.8516H104.248V0.202362Z" fill="white"/>
<path d="M108.45 7.92454C108.021 8.29605 107.774 8.60565 107.702 8.85333C107.635 9.10543 107.601 9.46368 107.601 9.93249C107.601 10.4677 107.631 10.817 107.691 10.9718C107.751 11.1266 107.868 11.2063 108.048 11.2063C108.217 11.2063 108.326 11.1443 108.374 11.0249C108.427 10.9011 108.45 10.5826 108.45 10.0608V7.92454ZM107.601 6.5004H105.089V5.80602C105.089 5.00549 105.168 4.3863 105.326 3.94844C105.483 3.51501 105.799 3.13022 106.272 2.79852C106.745 2.46681 107.361 2.29874 108.115 2.29874C109.02 2.29874 109.704 2.48892 110.165 2.86485C110.627 3.24079 110.901 3.70519 110.995 4.25362C111.089 4.80204 111.134 5.93428 111.134 7.65033V12.8515H108.528V11.9272C108.363 12.2987 108.153 12.5773 107.894 12.7631C107.635 12.9488 107.327 13.0417 106.97 13.0417C106.501 13.0417 106.073 12.8869 105.679 12.5773C105.288 12.2677 105.093 11.5866 105.093 10.5428V9.69366C105.093 8.91524 105.198 8.38893 105.405 8.10587C105.611 7.82281 106.129 7.49553 106.951 7.11959C107.83 6.71269 108.303 6.43848 108.363 6.30137C108.423 6.16426 108.457 5.87236 108.457 5.44335C108.457 4.89934 108.423 4.54994 108.356 4.3863C108.288 4.22265 108.172 4.13862 108.014 4.13862C107.834 4.13862 107.721 4.20939 107.676 4.34649C107.631 4.4836 107.608 4.84185 107.608 5.42124V6.5004H107.601Z" fill="white"/>
<path d="M115.546 5.43014C115.546 4.89498 115.516 4.54558 115.46 4.38194C115.404 4.21829 115.291 4.13426 115.122 4.13426C114.957 4.13426 114.852 4.20502 114.803 4.35098C114.754 4.49251 114.731 4.85518 114.731 5.43456V9.90159C114.731 10.4589 114.758 10.8171 114.814 10.9719C114.87 11.1267 114.979 11.2063 115.144 11.2063C115.313 11.2063 115.422 11.1267 115.471 10.9631C115.524 10.7994 115.546 10.4146 115.546 9.79987V5.43014ZM114.731 0.202391V3.19662C114.953 2.89587 115.197 2.67031 115.471 2.51994C115.741 2.36956 116.038 2.2988 116.357 2.2988C116.725 2.2988 117.044 2.36514 117.311 2.50225C117.581 2.63935 117.788 2.82953 117.927 3.07279C118.069 3.31604 118.152 3.55487 118.182 3.78928C118.212 4.02369 118.223 4.52347 118.223 5.28861V9.95909C118.223 10.7198 118.182 11.2859 118.096 11.6574C118.009 12.029 117.807 12.3518 117.487 12.626C117.168 12.9003 116.789 13.0374 116.353 13.0374C116.038 13.0374 115.745 12.9577 115.475 12.7941C115.205 12.6305 114.953 12.3872 114.728 12.0643L114.555 12.8472H112.047V0.197968H114.731V0.202391Z" fill="white"/>
<path d="M122.492 5.34604C122.492 4.81531 122.469 4.47918 122.421 4.34207C122.372 4.20496 122.267 4.1342 122.109 4.1342C121.951 4.1342 121.842 4.20496 121.79 4.34207C121.737 4.47918 121.711 4.81531 121.711 5.34604V10.0254C121.711 10.5163 121.737 10.8347 121.79 10.9807C121.842 11.1311 121.947 11.2018 122.101 11.2018C122.259 11.2018 122.364 11.1355 122.417 10.9984C122.469 10.8613 122.492 10.5694 122.492 10.1227V5.34604ZM125.169 6.12446V8.66314C125.169 9.59635 125.128 10.2775 125.049 10.7153C124.97 11.1488 124.797 11.5557 124.538 11.936C124.279 12.312 123.941 12.5906 123.532 12.7719C123.123 12.9533 122.653 13.0417 122.124 13.0417C121.531 13.0417 121.028 12.9621 120.618 12.8117C120.205 12.6569 119.886 12.4269 119.661 12.1173C119.432 11.8078 119.27 11.4318 119.173 10.994C119.075 10.5517 119.026 9.89269 119.026 9.01255V6.35445C119.026 5.39028 119.116 4.6384 119.293 4.0944C119.469 3.55481 119.789 3.11695 120.247 2.78967C120.705 2.46238 121.294 2.29874 122.011 2.29874C122.612 2.29874 123.13 2.40488 123.562 2.61718C123.994 2.82947 124.324 3.10369 124.561 3.43982C124.794 3.77595 124.955 4.12535 125.041 4.48802C125.128 4.84627 125.169 5.39027 125.169 6.12446Z" fill="white"/>
<path d="M128.732 2.4841L128.627 3.84632C129.017 2.86888 129.581 2.35141 130.32 2.29391V5.94272C129.828 5.94272 129.468 6.02233 129.239 6.17713C129.01 6.33193 128.867 6.54865 128.815 6.82728C128.762 7.10592 128.736 7.74722 128.736 8.7512V12.8467H126.055V2.47967H128.732V2.4841Z" fill="white"/>
</svg>
