<svg width="111" height="30" viewBox="0 0 111 30" fill="none" xmlns="http://www.w3.org/2000/svg">
<path d="M30.2332 21.6073H30.7664V25.2782C30.7664 26.521 30.9316 26.8394 31.5924 26.8394C31.8102 26.8394 32.0543 26.7554 32.1744 26.6979L32.7376 26.4104V21.6073H33.2558V26.4856C33.2558 26.8041 33.2933 27.3746 33.2933 27.3746H32.9291C32.884 27.2817 32.8352 27.1667 32.7902 26.9898L32.1669 27.3171C32.0054 27.4011 31.7314 27.494 31.5061 27.494C30.5148 27.494 30.2295 26.866 30.2295 25.2826V21.6073H30.2332Z" fill="white"/>
<path d="M34.6711 23.1852C34.7274 23.309 34.7612 23.393 34.81 23.5876L35.3732 23.2205C35.5272 23.1188 35.6924 23.0702 35.8726 23.0702C36.387 23.0702 36.7174 23.3974 36.7174 24.3174V27.378H36.2255V24.5695C36.2255 23.8972 36.1429 23.6894 35.7637 23.6894C35.5835 23.6894 35.4746 23.7557 35.4746 23.7557L34.8513 24.0918V27.378H34.3632V24.0476C34.3632 23.7557 34.3257 23.1852 34.3257 23.1852H34.6711V23.1852Z" fill="white"/>
<path d="M37.7083 23.1855H38.1964V27.3783H37.7083V23.1855ZM37.9523 21.5579C38.1326 21.5579 38.2902 21.7436 38.2902 22.0002C38.2902 22.2346 38.1288 22.4425 37.9523 22.4425C37.7796 22.4425 37.6182 22.2346 37.6182 22.0002C37.6182 21.7436 37.7796 21.5579 37.9523 21.5579Z" fill="white"/>
<path d="M39.9737 27.3792L38.8623 23.1864H39.4142L40.2478 26.4991L40.2928 26.7644L40.3304 26.4991L41.055 23.1864H41.5506L40.5481 27.3792H39.9737Z" fill="white"/>
<path d="M42.5046 24.8803H43.9389C43.9389 23.9426 43.6498 23.6154 43.248 23.6154C42.7975 23.6109 42.5234 23.9913 42.5046 24.8803ZM44.4457 24.8803V25.4154H42.5046C42.5234 26.6229 42.7749 26.8926 43.248 26.8926C43.7211 26.8926 44.2242 26.6007 44.2242 26.6007L44.3857 27.1094C44.3857 27.1094 43.8863 27.4941 43.1541 27.4941C42.6811 27.4941 42.0015 27.2863 42.0015 25.3226C42.0015 23.3367 42.7524 23.0669 43.2255 23.0669C43.7474 23.0669 44.4082 23.2792 44.4457 24.8803Z" fill="white"/>
<path d="M45.6169 23.1862C45.6695 23.3277 45.7183 23.5444 45.7521 23.7213L46.1764 23.2702C46.2928 23.1508 46.4016 23.0712 46.6232 23.0712C46.7396 23.0712 46.8522 23.111 46.9386 23.1641L46.7921 23.7744C46.7283 23.7479 46.657 23.7258 46.5631 23.7258C46.4279 23.7258 46.319 23.8275 46.3153 23.8275L45.7971 24.2654V27.3834H45.309V23.9646C45.309 23.7788 45.2715 23.195 45.2715 23.195H45.6169V23.1862Z" fill="white"/>
<path d="M49.4281 23.4296L49.2667 23.9426C49.0414 23.7569 48.6885 23.6419 48.3956 23.6419C48.0164 23.6419 47.8512 23.8453 47.8512 24.2036C47.8512 24.4026 47.9225 24.5574 48.0389 24.6459C48.313 24.8537 48.6847 24.9997 49.0489 25.2429C49.323 25.4199 49.537 25.7118 49.537 26.3088C49.537 27.1403 49.094 27.4986 48.5045 27.4986C47.7761 27.4986 47.2729 27.0961 47.2729 27.0961L47.4344 26.5831C47.4344 26.5831 47.9338 26.8926 48.4106 26.8926C48.7035 26.8926 49.0452 26.8263 49.0452 26.3044C49.0452 26.0921 48.9663 25.8666 48.7823 25.7516C48.5458 25.6012 48.2041 25.442 47.8925 25.2474C47.5733 25.0395 47.3931 24.752 47.3931 24.1903C47.3931 23.5048 47.7648 23.0669 48.3993 23.0669C48.7373 23.0669 49.1278 23.1952 49.4281 23.4296Z" fill="white"/>
<path d="M50.4046 23.186H50.8927V27.3788H50.4046V23.186ZM50.6486 21.5584C50.8288 21.5584 50.9865 21.7442 50.9865 22.0007C50.9865 22.2351 50.8251 22.443 50.6486 22.443C50.4759 22.443 50.3145 22.2351 50.3145 22.0007C50.3145 21.7442 50.4759 21.5584 50.6486 21.5584Z" fill="white"/>
<path d="M52.1092 23.1871V22.1389L52.5973 22.0106V23.1827H53.3595V23.7355H52.5973V26.3361C52.5973 26.8138 52.6424 26.9332 52.8977 26.9332C53.0779 26.9332 53.3407 26.8226 53.3407 26.8226L53.4571 27.2826C53.4571 27.2826 53.0929 27.4772 52.8226 27.4772C52.2969 27.4772 52.1092 27.2782 52.1092 26.3273V23.7355H51.6211V23.1827H52.1092V23.1871Z" fill="white"/>
<path d="M55.056 27.3795L53.8958 23.1866H54.4477L55.2625 26.2649L55.3 26.5347L55.3376 26.2649L56.0735 23.1866H56.5616L55.2925 28.4365C55.1498 29.0159 54.857 29.2503 54.474 29.2503C54.1286 29.2503 53.8057 29.0999 53.8057 29.0999L53.9221 28.6223C53.9221 28.6223 54.1473 28.7063 54.3538 28.7063C54.6467 28.7063 54.7894 28.4984 54.8795 28.1711L55.056 27.3795Z" fill="white"/>
<path d="M59.3139 25.3226C59.3139 26.5963 59.6668 26.9413 60.1662 26.9413C60.6017 26.9413 60.9734 26.5963 60.9734 25.3226C60.9734 24.0576 60.628 23.6198 60.1211 23.6198C59.6668 23.6198 59.3139 24.0576 59.3139 25.3226ZM61.4878 25.3226C61.4878 27.1669 60.6918 27.4941 60.1436 27.4941C59.5992 27.4941 58.8032 27.1669 58.8032 25.3226C58.8032 23.3942 59.6255 23.0669 60.1436 23.0669C60.6693 23.0669 61.4878 23.3942 61.4878 25.3226Z" fill="white"/>
<path d="M63.9096 21.2805L63.7932 21.7317C63.7932 21.7317 63.5679 21.6476 63.3389 21.6476C63.0873 21.6476 63.0009 21.8555 63.0009 22.3288V23.1824H63.7706V23.7352H63.0009V27.3752H62.5128V23.7352H62.0322V23.1824H62.5128V22.258C62.5128 21.4884 62.7907 21.0992 63.245 21.0992C63.5867 21.1081 63.9096 21.2805 63.9096 21.2805Z" fill="white"/>
<path d="M67.5034 22.3458L67.4658 22.7571L66.8238 25.2383H68.1755L67.5522 22.7571L67.5034 22.3458ZM65.7612 27.3789L67.2668 21.6116H67.8188L69.3056 27.3789H68.7237L68.3182 25.8044H66.6774L66.2794 27.3789H65.7612Z" fill="white"/>
<path d="M70.4498 23.9734V26.6315C70.5512 26.7553 70.7314 26.9013 71.0656 26.9013C71.5537 26.9013 71.8991 26.5298 71.8991 25.2825C71.8991 24.4599 71.7639 23.6549 71.3472 23.6549C71.1632 23.6549 71.0205 23.7301 71.0205 23.7301L70.4498 23.9734ZM70.2621 23.1861C70.3071 23.279 70.3334 23.363 70.371 23.4869L70.968 23.1861C70.968 23.1861 71.167 23.0711 71.396 23.0711C71.9554 23.0711 72.4097 23.6328 72.4097 25.2825C72.4097 27.1622 71.6288 27.4939 71.1332 27.4939C70.8253 27.4939 70.615 27.3657 70.4461 27.233V29.1038L69.958 29.2454V24.0707C69.958 23.7522 69.9204 23.1817 69.9204 23.1817H70.2621V23.1861Z" fill="white"/>
<path d="M73.7875 23.9734V26.6315C73.8889 26.7553 74.0691 26.9013 74.4033 26.9013C74.8914 26.9013 75.2368 26.5298 75.2368 25.2825C75.2368 24.4599 75.1017 23.6549 74.6849 23.6549C74.5009 23.6549 74.3582 23.7301 74.3582 23.7301L73.7875 23.9734ZM73.5998 23.1861C73.6448 23.279 73.6711 23.363 73.7087 23.4869L74.3057 23.1861C74.3057 23.1861 74.5047 23.0711 74.7375 23.0711C75.2931 23.0711 75.7512 23.6328 75.7512 25.2825C75.7512 27.1622 74.9702 27.4939 74.4746 27.4939C74.1667 27.4939 73.9565 27.3657 73.7913 27.233V29.1038L73.3032 29.2454V24.0707C73.3032 23.7522 73.2656 23.1817 73.2656 23.1817H73.5998V23.1861Z" fill="white"/>
<path d="M76.6377 21.2581L77.1258 21.1077V26.3399C77.1258 26.7512 77.1521 26.9369 77.3323 26.9369C77.4938 26.9369 77.6477 26.8706 77.6477 26.8706L77.7716 27.3085C77.7716 27.3085 77.52 27.4854 77.2384 27.4854C76.7841 27.4854 76.6414 27.1846 76.6414 26.3974V21.2581H76.6377Z" fill="white"/>
<path d="M78.4025 23.1859H78.8906V27.3787H78.4025V23.1859ZM78.6428 21.5583C78.823 21.5583 78.9844 21.7441 78.9844 22.0006C78.9844 22.235 78.823 22.4429 78.6428 22.4429C78.47 22.4429 78.3086 22.235 78.3086 22.0006C78.3123 21.7441 78.47 21.5583 78.6428 21.5583Z" fill="white"/>
<path d="M80.2573 24.8802H81.6916C81.6916 23.9425 81.4025 23.6153 80.997 23.6153C80.554 23.6108 80.2799 23.9912 80.2573 24.8802ZM82.2022 24.8802V25.4153H80.2611C80.2799 26.6228 80.5314 26.8926 81.0045 26.8926C81.4814 26.8926 81.9807 26.6006 81.9807 26.6006L82.1422 27.1093C82.1422 27.1093 81.6428 27.4941 80.9144 27.4941C80.4376 27.4941 79.7617 27.2862 79.7617 25.3225C79.7617 23.3366 80.5127 23.0668 80.9857 23.0668C81.5001 23.0668 82.1609 23.2791 82.2022 24.8802Z" fill="white"/>
<path d="M83.4442 25.2872C83.4442 25.8003 83.4818 26.906 83.9887 26.906C84.1351 26.906 84.304 26.8485 84.304 26.8485L84.9386 26.6052V23.9471C84.8372 23.8321 84.6457 23.6552 84.3116 23.6552C83.8009 23.6552 83.4442 24.0135 83.4442 25.2872ZM84.9348 21.2581L85.4267 21.1077V26.4902C85.4267 26.8087 85.4642 27.3792 85.4642 27.3792H85.1188C85.0662 27.2775 85.0287 27.1846 84.9912 27.0696L84.2928 27.4146C84.1914 27.4633 84.0638 27.4986 83.9398 27.4986C83.3879 27.4986 82.9336 26.9369 82.9336 25.2917C82.9336 23.381 83.6695 23.0714 84.229 23.0714C84.5443 23.0714 84.7846 23.2395 84.9348 23.3722V21.2581V21.2581Z" fill="white"/>
<path d="M90.4579 21.895L90.2739 22.4213C89.9773 22.2621 89.6206 22.1029 89.2038 22.1029C88.7232 22.1029 88.4867 22.4567 88.4867 23.0095C88.4867 23.4209 88.6219 23.6287 88.8021 23.757C89.14 24.0002 89.4254 24.1108 89.8346 24.3541C90.2176 24.5796 90.5856 24.9733 90.5856 25.9153C90.5856 26.9635 90.0975 27.4987 89.2527 27.4987C88.5843 27.4987 88.1375 27.2289 87.8672 27.0608L88.0324 26.4903C88.314 26.6583 88.6744 26.8353 89.1851 26.8353C89.7295 26.8353 90.0111 26.5434 90.0111 25.9065C90.0111 25.3802 89.8309 25.1369 89.6018 24.9909C89.2564 24.7787 88.9861 24.6902 88.6106 24.4469C88.2051 24.1772 87.9498 23.8012 87.9498 23.0051C87.9498 22.0232 88.4304 21.4969 89.1926 21.4969C89.6507 21.4925 90.0787 21.6738 90.4579 21.895Z" fill="white"/>
<path d="M93.3752 23.3272L93.21 23.8314C93.0636 23.7474 92.7745 23.6456 92.4591 23.6456C92.0123 23.6456 91.7232 24.0835 91.7232 25.2644C91.7232 26.4143 91.9485 26.9008 92.4328 26.9008C92.8308 26.9008 93.1049 26.7681 93.2664 26.6753L93.4203 27.1618C93.2288 27.2856 92.8834 27.4979 92.3427 27.4979C91.8283 27.4979 91.2163 27.206 91.2163 25.2423C91.2163 23.2785 92.0311 23.0707 92.4403 23.0707C92.8421 23.0663 93.2063 23.2255 93.3752 23.3272Z" fill="white"/>
<path d="M94.1373 23.1859H94.6254V27.3787H94.1373V23.1859ZM94.3776 21.5583C94.5578 21.5583 94.7193 21.7441 94.7193 22.0006C94.7193 22.235 94.5578 22.4429 94.3776 22.4429C94.2049 22.4429 94.0435 22.235 94.0435 22.0006C94.0472 21.7441 94.2049 21.5583 94.3776 21.5583Z" fill="white"/>
<path d="M95.9925 24.8802H97.4268C97.4268 23.9425 97.1377 23.6153 96.736 23.6153C96.2892 23.6108 96.0151 23.9912 95.9925 24.8802ZM97.9375 24.8802V25.4153H95.9963C96.0151 26.6228 96.2666 26.8926 96.7397 26.8926C97.2166 26.8926 97.7159 26.6006 97.7159 26.6006L97.8774 27.1093C97.8774 27.1093 97.378 27.4941 96.6458 27.4941C96.1728 27.4941 95.4932 27.2862 95.4932 25.3225C95.4932 23.3366 96.2441 23.0668 96.7172 23.0668C97.2353 23.0668 97.8962 23.2791 97.9375 24.8802Z" fill="white"/>
<path d="M99.0941 23.1861C99.1504 23.31 99.1842 23.394 99.2368 23.5886L99.8 23.2215C99.9539 23.1198 100.119 23.0711 100.299 23.0711C100.81 23.0711 101.144 23.3984 101.144 24.3184V27.3789H100.652V24.5705C100.652 23.8982 100.57 23.6903 100.19 23.6903C100.01 23.6903 99.9014 23.7567 99.9014 23.7567L99.2781 24.0928V27.3789H98.79V24.0486C98.79 23.7567 98.7524 23.1861 98.7524 23.1861H99.0941V23.1861Z" fill="white"/>
<path d="M104.133 23.3272L103.968 23.8314C103.821 23.7474 103.532 23.6456 103.217 23.6456C102.77 23.6456 102.481 24.0835 102.481 25.2644C102.481 26.4143 102.706 26.9008 103.191 26.9008C103.589 26.9008 103.863 26.7681 104.024 26.6753L104.178 27.1618C103.987 27.2856 103.641 27.4979 103.101 27.4979C102.59 27.4979 101.974 27.206 101.974 25.2423C101.974 23.2785 102.789 23.0707 103.198 23.0707C103.6 23.0663 103.964 23.2255 104.133 23.3272Z" fill="white"/>
<path d="M105.24 24.8802H106.675C106.675 23.9425 106.386 23.6153 105.984 23.6153C105.533 23.6108 105.259 23.9912 105.24 24.8802ZM107.182 24.8802V25.4153H105.24C105.259 26.6228 105.511 26.8926 105.984 26.8926C106.457 26.8926 106.96 26.6006 106.96 26.6006L107.118 27.1093C107.118 27.1093 106.618 27.4941 105.89 27.4941C105.413 27.4941 104.737 27.2862 104.737 25.3225C104.737 23.3366 105.488 23.0668 105.961 23.0668C106.483 23.0668 107.144 23.2791 107.182 24.8802Z" fill="white"/>
<path d="M109.916 23.4295L109.758 23.9425C109.533 23.7568 109.18 23.6418 108.887 23.6418C108.508 23.6418 108.342 23.8452 108.342 24.2035C108.342 24.4025 108.414 24.5573 108.526 24.6458C108.8 24.8536 109.172 24.9996 109.54 25.2428C109.814 25.4198 110.028 25.7117 110.028 26.3087C110.028 27.1402 109.585 27.4985 108.996 27.4985C108.267 27.4985 107.764 27.096 107.764 27.096L107.926 26.583C107.926 26.583 108.425 26.8926 108.898 26.8926C109.195 26.8926 109.533 26.8262 109.533 26.3043C109.533 26.092 109.454 25.8665 109.27 25.7515C109.033 25.6011 108.695 25.4419 108.38 25.2473C108.061 25.0394 107.881 24.7519 107.881 24.1902C107.881 23.5047 108.252 23.0668 108.887 23.0668C109.225 23.0668 109.615 23.1951 109.916 23.4295Z" fill="white"/>
<path d="M0.925293 0.630219V15.8756H2.70125V9.27237H6.80134V7.2998H2.70125V2.64701H7.0529V0.630219H0.925293Z" fill="white"/>
<path d="M15.4035 0.630219V6.90175H11.1532V0.630219H9.37354V15.8756H11.1532V8.80797H15.4035V15.8756H17.1832V0.630219H15.4035Z" fill="white"/>
<path d="M22.8569 0.630219V7.72881V20.2674V27.3616H24.5165V20.2674V7.72881V0.630219H22.8569Z" fill="white"/>
<path d="M49.0189 4.42056L49.1728 3.06718L49.3418 4.42056L50.7122 10.1392H47.5959L49.0189 4.42056ZM48.2905 0.630219L44.4795 15.8756H46.2555L47.1866 11.9526H51.114L52.0639 15.8756H54.0464L50.2354 0.630219H48.2905Z" fill="white"/>
<path d="M39.0613 14.2398C36.9098 14.2398 36.403 11.8913 36.403 8.34864C36.403 4.58042 36.9774 2.27614 39.0613 2.27614C41.1789 2.27614 41.7045 4.58042 41.7045 8.34864C41.7008 11.8869 41.1939 14.2398 39.0613 14.2398ZM39.0613 0.321259C36.5381 0.321259 34.5557 1.96212 34.5557 8.34422C34.5557 14.7705 36.4367 16.1903 39.0613 16.1903C41.6707 16.1903 43.5481 14.7705 43.5481 8.34422C43.5481 1.96212 41.652 0.321259 39.0613 0.321259Z" fill="white"/>
<path d="M62.1641 0.630219V11.1123L62.2693 13.306L61.8112 11.1786L58.0002 0.630219H55.5259V15.8756H57.2868V5.26531L57.1704 3.02295L57.7111 5.23877L61.6422 15.8756H63.9438V0.630219H62.1641Z" fill="white"/>
<path d="M73.3941 0.630219V11.1123L73.4955 13.306L73.0374 11.1786L69.2264 0.630219H66.7559V15.8756H68.5168V5.26531L68.3967 3.02295L68.9411 5.23877L72.8684 15.8756H75.1701V0.630219H73.3941Z" fill="white"/>
<path d="M77.9819 0.630219V15.8756H84.5526V13.7482H79.7616V8.96277H83.9594V6.9902H79.7616V2.64701H84.3836V0.630219H77.9819Z" fill="white"/>
<path d="M86.7041 10.2944V0.63504H88.4988V10.2502C88.4988 13.2887 88.8893 14.0405 90.4137 14.0405C90.9544 14.0405 91.5138 13.8636 91.8893 13.6867L93.1584 13.0675V0.63504H94.9381V13.3992C94.9381 14.1953 95.0395 15.8804 95.0395 15.8804H93.7704C93.6352 15.6151 93.5 15.3055 93.3649 14.8588L91.8255 15.6991C91.3524 15.9645 90.639 16.1856 90.012 16.1856C87.3987 16.19 86.7041 14.5049 86.7041 10.2944Z" fill="white"/>
<path d="M106.078 0.630219L103.791 11.7978L103.555 13.6819L103.318 11.7978L100.964 0.630219H98.3397L97.4048 15.8756H99.2183L99.8603 5.26531L99.9129 2.84604L100.251 5.26531L102.537 15.8756H104.434L106.754 5.26531L107.058 2.84604L107.111 5.26531L107.738 15.8756H109.566L108.616 0.630219H106.078Z" fill="white"/>
<path d="M30.1931 0.630219V12.6956C30.1931 15.0441 29.2883 15.5881 28.2407 16.1852L28.7814 17.9455C30.317 17.2953 31.9879 16.5125 31.9879 12.9212V0.630219H30.1931Z" fill="white"/>
</svg>
