<?xml version="1.0" encoding="UTF-8"?>
<svg id="Ebene_2" data-name="Ebene 2" xmlns="http://www.w3.org/2000/svg" viewBox="0 0 301.7 61.13">
  <defs>
    <style>
      .fh-fill {
        fill: #fff;
      }
    </style>
  </defs>
  <g id="Ebene_1-2" data-name="Ebene 1">
    <g>
      <g>
        <path class="fh-fill" d="M81.05,44.99h1.47v7.76c0,2.62,.46,3.3,2.29,3.3,.6,0,1.28-.18,1.61-.3l1.56-.6v-10.15h1.44v10.31c0,.67,.11,1.88,.11,1.88h-1.01c-.12-.2-.27-.44-.39-.82l-1.72,.69c-.44,.18-1.2,.37-1.83,.37-2.75,0-3.53-1.33-3.53-4.68v-7.76Z"/>
        <path class="fh-fill" d="M93.33,48.32c.16,.27,.25,.44,.39,.85l1.56-.78c.43-.21,.89-.32,1.38-.32,1.42,0,2.34,.69,2.34,2.64v6.47h-1.36v-5.94c0-1.42-.23-1.86-1.28-1.86-.5,0-.8,.14-.8,.14l-1.72,.71v6.95h-1.35v-7.04c0-.62-.11-1.83-.11-1.83h.94Z"/>
        <path class="fh-fill" d="M102.4,44.88c.5,0,.94,.39,.94,.94,0,.5-.44,.94-.94,.94s-.92-.44-.92-.94c0-.55,.44-.94,.92-.94Zm-.67,12.3v-8.86h1.35v8.86h-1.35Z"/>
        <path class="fh-fill" d="M107.98,57.18l-3.07-8.86h1.52l2.3,7,.12,.57,.11-.57,2-7h1.37l-2.76,8.86h-1.6Z"/>
        <path class="fh-fill" d="M120.35,51.9v1.13h-5.37c.05,2.55,.74,3.12,2.06,3.12s2.69-.62,2.69-.62l.44,1.08s-1.38,.81-3.4,.81c-1.31,0-3.19-.44-3.19-4.59s2.07-4.77,3.38-4.77c1.45,0,3.28,.44,3.38,3.83Zm-5.37,0h3.97c0-1.98-.8-2.68-1.91-2.68-1.24,0-2,.8-2.06,2.68Z"/>
        <path class="fh-fill" d="M123.59,48.32c.14,.3,.28,.76,.37,1.13l1.17-.96c.32-.25,.62-.43,1.24-.43,.32,0,.64,.09,.87,.2l-.41,1.29c-.18-.05-.37-.11-.64-.11-.37,0-.67,.21-.69,.21l-1.44,.92v6.59h-1.35v-7.23c0-.39-.11-1.63-.11-1.63h.97Z"/>
        <path class="fh-fill" d="M134.13,48.83l-.44,1.08c-.62-.39-1.59-.64-2.41-.64-1.05,0-1.51,.43-1.51,1.19,0,.42,.19,.74,.51,.94,.76,.44,1.79,.75,2.8,1.26,.76,.37,1.35,.99,1.35,2.25,0,1.75-1.22,2.52-2.85,2.52-2.02,0-3.4-.85-3.4-.85l.44-1.08s1.38,.66,2.69,.66c.82,0,1.75-.14,1.75-1.24,0-.44-.21-.92-.73-1.17-.66-.32-1.59-.66-2.46-1.06-.89-.44-1.38-1.05-1.38-2.23,0-1.45,1.03-2.38,2.78-2.38,.94,0,2.02,.27,2.85,.76Z"/>
        <path class="fh-fill" d="M137.5,44.88c.5,0,.94,.39,.94,.94,0,.5-.44,.94-.94,.94s-.92-.44-.92-.94c0-.55,.44-.94,.92-.94Zm-.67,12.3v-8.86h1.35v8.86h-1.35Z"/>
        <path class="fh-fill" d="M141.54,48.32v-2.21l1.35-.27v2.48h2.11v1.17h-2.11v5.49c0,1.01,.12,1.26,.83,1.26,.5,0,1.22-.23,1.22-.23l.32,.97s-1.01,.41-1.75,.41c-1.45,0-1.97-.42-1.97-2.43v-5.47h-1.35v-1.17h1.35Z"/>
        <path class="fh-fill" d="M149.69,57.18l-3.21-8.86h1.52l2.25,6.5,.11,.57,.11-.57,2.04-6.5h1.35l-3.51,11.09c-.39,1.22-1.21,1.72-2.27,1.72-.96,0-1.84-.32-1.84-.32l.32-1.01s.62,.18,1.19,.18c.81,0,1.2-.44,1.45-1.13l.5-1.67Z"/>
        <path class="fh-fill" d="M167.48,52.84c0,3.9-2.2,4.59-3.72,4.59s-3.7-.69-3.7-4.59,2.27-4.77,3.7-4.77,3.72,.69,3.72,4.77Zm-6.01,0c0,2.69,.97,3.42,2.36,3.42,1.2,0,2.23-.73,2.23-3.42s-.96-3.6-2.36-3.6c-1.26,0-2.23,.92-2.23,3.6Z"/>
        <path class="fh-fill" d="M174.17,44.3l-.32,.96s-.62-.18-1.26-.18c-.69,0-.94,.44-.94,1.44v1.81h2.13v1.17h-2.13v7.69h-1.35v-7.69h-1.33v-1.17h1.33v-1.95c0-1.63,.76-2.45,2.02-2.45,.95,0,1.84,.37,1.84,.37Z"/>
        <path class="fh-fill" d="M179.29,57.18l4.16-12.19h1.53l4.11,12.19h-1.61l-1.12-3.33h-4.54l-1.1,3.33h-1.44Zm4.82-10.63l-.11,.87-1.77,5.25h3.74l-1.72-5.25-.14-.87Z"/>
        <path class="fh-fill" d="M191.75,48.32c.12,.2,.2,.37,.3,.64l1.65-.64s.55-.25,1.19-.25c1.54,0,2.8,1.19,2.8,4.68,0,3.97-2.16,4.68-3.53,4.68-.85,0-1.44-.27-1.9-.55v3.95l-1.35,.3v-10.93c0-.67-.11-1.88-.11-1.88h.94Zm.51,1.67v5.62c.29,.27,.78,.57,1.7,.57,1.35,0,2.3-.78,2.3-3.42,0-1.74-.37-3.44-1.52-3.44-.51,0-.9,.16-.9,.16l-1.58,.51Z"/>
        <path class="fh-fill" d="M200.98,48.32c.12,.2,.2,.37,.3,.64l1.65-.64s.55-.25,1.19-.25c1.54,0,2.8,1.19,2.8,4.68,0,3.97-2.16,4.68-3.53,4.68-.85,0-1.44-.27-1.89-.55v3.95l-1.35,.3v-10.93c0-.67-.11-1.88-.11-1.88h.94Zm.52,1.67v5.62c.28,.27,.78,.57,1.7,.57,1.35,0,2.3-.78,2.3-3.42,0-1.74-.37-3.44-1.52-3.44-.51,0-.9,.16-.9,.16l-1.58,.51Z"/>
        <path class="fh-fill" d="M209.37,44.25l1.35-.32v11.06c0,.87,.07,1.26,.57,1.26,.44,0,.87-.14,.87-.14l.34,.92s-.69,.37-1.47,.37c-1.26,0-1.65-.64-1.65-2.3v-10.84Z"/>
        <path class="fh-fill" d="M214.92,44.88c.5,0,.94,.39,.94,.94,0,.5-.44,.94-.94,.94s-.92-.44-.92-.94c0-.55,.44-.94,.92-.94Zm-.67,12.3v-8.86h1.35v8.86h-1.35Z"/>
        <path class="fh-fill" d="M224.75,51.9v1.13h-5.37c.05,2.55,.74,3.12,2.05,3.12s2.69-.62,2.69-.62l.44,1.08s-1.38,.81-3.4,.81c-1.31,0-3.19-.44-3.19-4.59s2.07-4.77,3.38-4.77c1.45,0,3.28,.44,3.38,3.83Zm-5.37,0h3.97c0-1.98-.8-2.68-1.92-2.68-1.24,0-2,.8-2.05,2.68Z"/>
        <path class="fh-fill" d="M232.32,44.25l1.37-.32v11.38c0,.67,.11,1.88,.11,1.88h-.95c-.14-.21-.25-.41-.36-.66l-1.93,.73c-.28,.11-.64,.18-.97,.18-1.52,0-2.78-1.19-2.78-4.66,0-4.04,2.04-4.7,3.58-4.7,.87,0,1.54,.35,1.95,.64v-4.46Zm-4.13,8.52c0,1.08,.11,3.42,1.51,3.42,.41,0,.87-.12,.87-.12l1.75-.51v-5.62c-.28-.25-.81-.62-1.74-.62-1.4,0-2.39,.76-2.39,3.46Z"/>
        <path class="fh-fill" d="M247.59,45.59l-.51,1.12c-.82-.34-1.81-.67-2.96-.67-1.33,0-1.98,.74-1.98,1.91,0,.87,.37,1.31,.87,1.58,.94,.51,1.72,.74,2.85,1.26,1.06,.48,2.07,1.31,2.07,3.3,0,2.21-1.35,3.35-3.69,3.35-1.84,0-3.08-.57-3.83-.92l.46-1.2c.78,.35,1.77,.73,3.19,.73,1.51,0,2.29-.62,2.29-1.97,0-1.12-.5-1.63-1.13-1.93-.96-.44-1.7-.64-2.75-1.15-1.12-.57-1.83-1.37-1.83-3.05,0-2.07,1.33-3.19,3.44-3.19,1.28,0,2.46,.39,3.51,.85Z"/>
        <path class="fh-fill" d="M255.65,48.62l-.46,1.06c-.41-.18-1.21-.39-2.07-.39-1.24,0-2.04,.92-2.04,3.42s.62,3.46,1.97,3.46c1.1,0,1.86-.28,2.3-.48l.43,1.03c-.53,.27-1.49,.71-2.98,.71s-3.12-.62-3.12-4.77,2.25-4.59,3.38-4.59,2.12,.34,2.59,.55Z"/>
        <path class="fh-fill" d="M258.43,44.88c.5,0,.94,.39,.94,.94,0,.5-.44,.94-.94,.94s-.92-.44-.92-.94c0-.55,.44-.94,.92-.94Zm-.67,12.3v-8.86h1.35v8.86h-1.35Z"/>
        <path class="fh-fill" d="M268.27,51.9v1.13h-5.37c.05,2.55,.74,3.12,2.05,3.12s2.69-.62,2.69-.62l.44,1.08s-1.38,.81-3.4,.81c-1.31,0-3.19-.44-3.19-4.59s2.07-4.77,3.38-4.77c1.45,0,3.28,.44,3.38,3.83Zm-5.37,0h3.97c0-1.98-.8-2.68-1.91-2.68-1.24,0-2,.8-2.05,2.68Z"/>
        <path class="fh-fill" d="M271.47,48.32c.16,.27,.25,.44,.39,.85l1.56-.78c.43-.21,.89-.32,1.38-.32,1.42,0,2.34,.69,2.34,2.64v6.47h-1.36v-5.94c0-1.42-.23-1.86-1.28-1.86-.49,0-.8,.14-.8,.14l-1.72,.71v6.95h-1.35v-7.04c0-.62-.11-1.83-.11-1.83h.94Z"/>
        <path class="fh-fill" d="M285.4,48.62l-.46,1.06c-.41-.18-1.21-.39-2.07-.39-1.24,0-2.04,.92-2.04,3.42s.62,3.46,1.96,3.46c1.1,0,1.86-.28,2.3-.48l.43,1.03c-.53,.27-1.49,.71-2.98,.71s-3.12-.62-3.12-4.77,2.25-4.59,3.38-4.59,2.12,.34,2.59,.55Z"/>
        <path class="fh-fill" d="M293.83,51.9v1.13h-5.37c.05,2.55,.74,3.12,2.06,3.12s2.69-.62,2.69-.62l.44,1.08s-1.38,.81-3.4,.81c-1.31,0-3.19-.44-3.19-4.59s2.07-4.77,3.38-4.77c1.45,0,3.28,.44,3.38,3.83Zm-5.37,0h3.97c0-1.98-.8-2.68-1.91-2.68-1.24,0-2,.8-2.06,2.68Z"/>
        <path class="fh-fill" d="M301.4,48.83l-.44,1.08c-.62-.39-1.6-.64-2.41-.64-1.04,0-1.51,.43-1.51,1.19,0,.42,.19,.74,.51,.94,.76,.44,1.79,.75,2.8,1.26,.76,.37,1.35,.99,1.35,2.25,0,1.75-1.22,2.52-2.85,2.52-2.02,0-3.4-.85-3.4-.85l.44-1.08s1.38,.66,2.69,.66c.81,0,1.75-.14,1.75-1.24,0-.44-.21-.92-.73-1.17-.66-.32-1.59-.66-2.46-1.06-.89-.44-1.38-1.05-1.38-2.23,0-1.45,1.03-2.38,2.78-2.38,.94,0,2.02,.27,2.85,.76Z"/>
      </g>
      <polygon class="fh-fill" points="0 .66 16.95 .66 16.95 4.92 4.92 4.92 4.92 14.75 16.25 14.75 16.25 18.92 4.92 18.92 4.92 32.87 0 32.87 0 .66"/>
      <polygon class="fh-fill" points="23.37 .66 28.29 .66 28.29 13.91 40.04 13.91 40.04 .66 44.96 .66 44.96 32.87 40.04 32.87 40.04 17.94 28.29 17.94 28.29 32.87 23.37 32.87 23.37 .66"/>
      <polygon class="fh-fill" points="60.65 .66 60.65 15.65 60.65 42.15 60.65 57.15 65.24 57.15 65.24 42.15 65.24 15.65 65.24 .66 60.65 .66"/>
      <path class="fh-fill" d="M136.37,.66h-5.39l-10.54,32.22h4.92l2.58-8.29h10.86l2.62,8.29h5.48L136.37,.66Zm-7.31,20.09l3.93-12.08,.42-2.86,.47,2.86,3.79,12.08h-8.62Z"/>
      <g>
        <path class="fh-fill" d="M105.46,0c-6.98,0-12.46,3.47-12.46,16.95s5.2,16.58,12.46,16.58,12.41-3,12.41-16.58S112.62,0,105.46,0m0,29.41c-5.95,0-7.35-4.96-7.35-12.46,0-7.96,1.59-12.83,7.35-12.83s7.31,4.87,7.31,12.83c0,7.49-1.4,12.46-7.31,12.46"/>
        <polygon class="fh-fill" points="150.99 .66 157.83 .66 168.37 22.95 169.63 27.44 169.35 22.81 169.35 .66 174.27 .66 174.27 32.87 167.9 32.87 157.03 10.4 155.53 5.71 155.86 10.44 155.86 32.87 150.99 32.87 150.99 .66"/>
        <polygon class="fh-fill" points="182.04 .66 188.88 .66 199.41 22.95 200.68 27.44 200.4 22.81 200.4 .66 205.31 .66 205.31 32.87 198.95 32.87 188.08 10.4 186.58 5.71 186.91 10.44 186.91 32.87 182.04 32.87 182.04 .66"/>
        <polygon class="fh-fill" points="213.09 .66 230.79 .66 230.79 4.92 218 4.92 218 14.1 229.62 14.1 229.62 18.26 218 18.26 218 28.38 231.26 28.38 231.26 32.87 213.09 32.87 213.09 .66"/>
        <path class="fh-fill" d="M237.2,21.08V.66h4.96V20.98c0,6.42,1.08,8.01,5.29,8.01,1.5,0,3.04-.38,4.07-.75l3.51-1.31V.66h4.92V27.63c0,1.69,.28,5.24,.28,5.24h-3.51c-.37-.56-.75-1.22-1.12-2.15l-4.26,1.78c-1.31,.56-3.28,1.03-5.01,1.03-7.21,0-9.13-3.56-9.13-12.46"/>
        <polygon class="fh-fill" points="269.38 .66 276.64 .66 283.15 24.26 283.8 28.24 284.46 24.26 290.78 .66 297.8 .66 300.42 32.87 295.37 32.87 293.63 10.44 293.49 5.34 292.65 10.44 286.23 32.87 280.99 32.87 274.67 10.44 273.73 5.34 273.59 10.44 271.81 32.87 266.8 32.87 269.38 .66"/>
        <path class="fh-fill" d="M80.94,.66V26.16c0,4.96-2.5,6.11-5.4,7.37l1.5,3.72c4.25-1.37,8.87-3.03,8.87-10.62V.66h-4.96Z"/>
      </g>
    </g>
  </g>
</svg>
