<svg width="24" height="24" viewBox="0 0 24 24" fill="none" xmlns="http://www.w3.org/2000/svg">
<path d="M12 2C9.28333 2 8.94417 2.0125 7.8775 2.06C6.8125 2.11 6.0875 2.2775 5.45 2.525C4.7925 2.78 4.23417 3.1225 3.67833 3.67833C3.1225 4.23417 2.77917 4.79167 2.525 5.45C2.2775 6.0875 2.10917 6.8125 2.06 7.8775C2.01 8.94417 2 9.28333 2 12C2 14.7167 2.0125 15.0558 2.06 16.1225C2.11 17.1867 2.2775 17.9125 2.525 18.55C2.77608 19.2174 3.16966 19.822 3.67833 20.3217C4.17773 20.8307 4.78241 21.2243 5.45 21.475C6.08833 21.7217 6.81333 21.8908 7.8775 21.94C8.94417 21.99 9.28333 22 12 22C14.7167 22 15.0558 21.9875 16.1225 21.94C17.1867 21.89 17.9125 21.7217 18.55 21.475C19.2172 21.2236 19.8218 20.8301 20.3217 20.3217C20.8309 19.8224 21.2245 19.2177 21.475 18.55C21.7217 17.9125 21.8908 17.1867 21.94 16.1225C21.99 15.0558 22 14.7167 22 12C22 9.28333 21.9875 8.94417 21.94 7.8775C21.89 6.81333 21.7217 6.08667 21.475 5.45C21.2238 4.78268 20.8302 4.17811 20.3217 3.67833C19.8226 3.16887 19.2178 2.77516 18.55 2.525C17.9125 2.2775 17.1867 2.10917 16.1225 2.06C15.0558 2.01 14.7167 2 12 2ZM12 3.8C14.6692 3.8 14.9875 3.81333 16.0417 3.85917C17.0167 3.905 17.5458 4.06667 17.8975 4.205C18.3658 4.38583 18.6975 4.6025 19.0492 4.95167C19.3983 5.30167 19.615 5.63417 19.7958 6.1025C19.9325 6.45417 20.0958 6.98333 20.14 7.95833C20.1875 9.01333 20.1983 9.33 20.1983 12C20.1983 14.67 20.1858 14.9875 20.1367 16.0417C20.0858 17.0167 19.9233 17.5458 19.7858 17.8975C19.6232 18.3315 19.3675 18.7246 19.0367 19.0492C18.7134 19.3802 18.3206 19.6353 17.8867 19.7958C17.5367 19.9325 16.9992 20.0958 16.0242 20.14C14.9625 20.1875 14.65 20.1983 11.975 20.1983C9.29917 20.1983 8.98667 20.1858 7.92583 20.1367C6.95 20.0858 6.4125 19.9233 6.0625 19.7858C5.62825 19.6252 5.23556 19.3692 4.91333 19.0367C4.57882 18.7156 4.32226 18.3222 4.16333 17.8867C4.02583 17.5367 3.86417 16.9992 3.81333 16.0242C3.77583 14.9742 3.7625 14.65 3.7625 11.9875C3.7625 9.32417 3.77583 8.99917 3.81333 7.93667C3.86417 6.96167 4.02583 6.425 4.16333 6.075C4.33833 5.6 4.5625 5.275 4.91333 4.92417C5.2625 4.575 5.58833 4.35 6.0625 4.17583C6.4125 4.0375 6.93833 3.875 7.91333 3.825C8.97583 3.7875 9.28833 3.775 11.9625 3.775L12 3.8ZM12 6.865C11.3257 6.865 10.6579 6.99782 10.0349 7.25588C9.41191 7.51394 8.84584 7.89218 8.36901 8.36901C7.89218 8.84584 7.51394 9.41191 7.25588 10.0349C6.99782 10.6579 6.865 11.3257 6.865 12C6.865 12.6743 6.99782 13.3421 7.25588 13.9651C7.51394 14.5881 7.89218 15.1542 8.36901 15.631C8.84584 16.1078 9.41191 16.4861 10.0349 16.7441C10.6579 17.0022 11.3257 17.135 12 17.135C13.3619 17.135 14.668 16.594 15.631 15.631C16.594 14.668 17.135 13.3619 17.135 12C17.135 10.6381 16.594 9.33201 15.631 8.36901C14.668 7.40601 13.3619 6.865 12 6.865ZM12 15.3333C10.1583 15.3333 8.66667 13.8417 8.66667 12C8.66667 10.1583 10.1583 8.66667 12 8.66667C13.8417 8.66667 15.3333 10.1583 15.3333 12C15.3333 13.8417 13.8417 15.3333 12 15.3333ZM18.5383 6.6625C18.5268 6.97302 18.3953 7.26697 18.1715 7.48256C17.9477 7.69815 17.6491 7.8186 17.3383 7.8186C17.0276 7.8186 16.729 7.69815 16.5052 7.48256C16.2814 7.26697 16.1499 6.97302 16.1383 6.6625C16.1383 6.34424 16.2648 6.03902 16.4898 5.81397C16.7148 5.58893 17.0201 5.4625 17.3383 5.4625C17.6566 5.4625 17.9618 5.58893 18.1869 5.81397C18.4119 6.03902 18.5383 6.34424 18.5383 6.6625Z" fill="white"/>
</svg>
