<?xml version="1.0" encoding="UTF-8"?>
<svg id="Ebene_2" data-name="Ebene 2" xmlns="http://www.w3.org/2000/svg" viewBox="0 0 196.23 108.84">
  <defs>
    <style>
      .idk-fill {
        fill: #fff;
      }
    </style>
  </defs>
  <g id="Ebene_1-2" data-name="Ebene 1">
    <g>
      <path class="idk-fill" d="M92.57,74.01h37.66v-4.99h-37.66v4.99Zm-34.8-12.77h6.22v-18.67l-.25-2.62,17.19,21.29h8.43l-19.08-22.76,17.93-18.18h-8.27l-16.21,16.87,.25-2.54V0l-6.22,1.47V61.24Zm-29.08,1.15c1.56,0,3.19-.33,4.5-.82l8.92-3.36c.49,1.15,.98,2.05,1.64,3.03h4.42s-.49-5.57-.49-8.68V0l-6.3,1.47V22.11c-1.88-1.31-4.99-2.95-9.01-2.95-7.12,0-16.54,3.03-16.54,21.7,0,16.05,5.81,21.53,12.85,21.53m.57-5.73c-6.47,0-6.96-10.81-6.96-15.8,0-12.44,4.59-15.97,11.05-15.97,4.26,0,6.71,1.72,8.02,2.87v25.95l-8.11,2.38s-2.13,.57-4.01,.57M1.15,61.24H7.37V20.3H1.15V61.24ZM4.26,13.1c2.29,0,4.34-2.05,4.34-4.34,0-2.54-2.05-4.34-4.34-4.34S0,6.22,0,8.76c0,2.29,2.05,4.34,4.26,4.34"/>
      <path class="idk-fill" d="M191.32,108.66h1.02v-5.25l1.3-.54s.23-.11,.6-.11c.79,0,.96,.33,.96,1.4v4.48h1.03v-4.89c0-1.47-.7-1.99-1.77-1.99-.37,0-.72,.08-1.04,.24l-1.18,.59c-.11-.31-.17-.44-.29-.64h-.71s.08,.91,.08,1.38v5.31Zm-4.25,.19c1.15,0,2.81-.52,2.81-3.47s-1.71-3.6-2.81-3.6-2.8,.52-2.8,3.6,1.66,3.47,2.8,3.47m.05-.88c-1.04,0-1.78-.55-1.78-2.58s.74-2.72,1.69-2.72c1.06,0,1.78,.7,1.78,2.72s-.78,2.58-1.69,2.58m-5.28,.7h1.02v-6.69h-1.02v6.69Zm.51-7.87c.38,0,.71-.33,.71-.71,0-.42-.33-.71-.71-.71s-.7,.29-.7,.71c0,.38,.34,.71,.7,.71m-2.96,8.03c.56,0,1.32-.31,1.32-.31l-.24-.74s-.55,.17-.92,.17c-.54,0-.63-.19-.63-.95v-4.15h1.59v-.88h-1.59v-1.87l-1.02,.2v1.67h-1.02v.88h1.02v4.14c0,1.51,.39,1.83,1.49,1.83m-6.16,.03c.83,0,1.35-.36,1.7-.62,.09,.19,.15,.28,.24,.43h.68s-.08-.91-.08-1.43v-3.27c0-1.42-.4-2.18-2.11-2.18-.82,0-1.74,.24-2.41,.76l.37,.82c.52-.38,1.22-.66,1.99-.66,.87,0,1.13,.28,1.13,1.18v.79l-2.2,.13c-.98,.05-1.51,.59-1.51,1.85,0,1.11,.45,2.19,2.19,2.19m.15-.9c-1.03,0-1.3-.75-1.3-1.31,0-.68,.15-.87,.78-.95l1.89-.24v2.02c-.19,.19-.66,.48-1.37,.48m-5.42,.9c1.12,0,1.85-.33,2.25-.53l-.32-.78c-.33,.15-.91,.36-1.74,.36-1.02,0-1.49-.78-1.49-2.61s.6-2.58,1.54-2.58c.65,0,1.26,.16,1.56,.29l.35-.8c-.35-.16-1.11-.42-1.95-.42s-2.56,.33-2.56,3.47,1.29,3.6,2.36,3.6m-4.82-.19h1.02v-6.69h-1.02v6.69Zm.51-7.87c.37,0,.71-.33,.71-.71,0-.42-.33-.71-.71-.71s-.7,.29-.7,.71c0,.38,.33,.71,.7,.71m-7.12,7.87h1.02v-5.25l1.3-.54s.23-.11,.6-.11c.79,0,.96,.33,.96,1.4v4.48h1.03v-4.89c0-1.47-.7-1.99-1.77-1.99-.37,0-.72,.08-1.04,.24l-1.18,.59c-.11-.31-.17-.44-.29-.64h-.71s.08,.91,.08,1.38v5.31Zm-4.82,.19c.4,0,.71-.07,.96-.19l1.22-.58c.07,.24,.15,.41,.25,.58h.72s-.08-.91-.08-1.42v-5.27h-1.03v5.35l-1.36,.48s-.28,.08-.48,.08c-.79,0-1.06-.48-1.06-1.34v-4.58h-1.02v4.75c0,1.55,.81,2.13,1.87,2.13m-11.96-.19h1.02v-5.25l1.28-.51c.15-.06,.36-.13,.64-.13,.65,0,.75,.48,.75,1.31v4.58h1.03v-5.26l1.19-.49c.11-.04,.33-.13,.64-.13,.74,0,.84,.48,.84,1.31v4.58h1.02v-4.84c0-1.57-.71-2.04-1.74-2.04-.28,0-.7,.15-.98,.28l-1.16,.55c-.27-.66-.8-.83-1.46-.83-.33,0-.72,.15-1,.28l-1.15,.55c-.07-.23-.17-.45-.29-.64h-.71s.08,.91,.08,1.38v5.31Zm-10.13,0h1.02v-5.25l1.29-.51c.15-.06,.36-.13,.64-.13,.66,0,.75,.48,.75,1.31v4.58h1.03v-5.26l1.19-.49c.11-.04,.33-.13,.64-.13,.74,0,.84,.48,.84,1.31v4.58h1.02v-4.84c0-1.57-.71-2.04-1.74-2.04-.28,0-.7,.15-.98,.28l-1.16,.55c-.27-.66-.8-.83-1.46-.83-.33,0-.72,.15-1,.28l-1.15,.55c-.07-.23-.17-.45-.29-.64h-.71s.08,.91,.08,1.38v5.31Zm-4.25,.19c1.15,0,2.81-.52,2.81-3.47s-1.71-3.6-2.81-3.6-2.8,.52-2.8,3.6,1.66,3.47,2.8,3.47m.05-.88c-1.04,0-1.78-.55-1.78-2.58s.74-2.72,1.69-2.72c1.06,0,1.78,.7,1.78,2.72s-.78,2.58-1.69,2.58m-6.59,.84c1.26,0,2.44-.43,2.95-.7l-.38-.91c-.42,.19-1.39,.59-2.47,.59-1.46,0-2.1-.72-2.1-3.77s.71-3.71,2.17-3.71c.92,0,1.85,.35,2.22,.52l.38-.9c-.45-.23-1.63-.63-2.65-.63-1.58,0-3.28,.44-3.28,4.66s1.49,4.84,3.17,4.84m-11.21,.04c.26,0,.52-.05,.74-.13l1.46-.55c.08,.19,.16,.33,.27,.5h.72s-.08-.91-.08-1.42v-8.59l-1.03,.24v3.37c-.31-.21-.82-.48-1.47-.48-1.16,0-2.7,.5-2.7,3.55,0,2.62,.95,3.52,2.1,3.52m.09-.94c-1.06,0-1.14-1.77-1.14-2.58,0-2.03,.75-2.61,1.81-2.61,.7,0,1.1,.28,1.31,.47v4.24l-1.33,.39s-.35,.09-.65,.09m-8.56,.75h1.02v-5.25l1.3-.54s.23-.11,.6-.11c.79,0,.96,.33,.96,1.4v4.48h1.03v-4.89c0-1.47-.7-1.99-1.77-1.99-.37,0-.72,.08-1.04,.24l-1.18,.59c-.11-.31-.17-.44-.29-.64h-.71s.08,.91,.08,1.38v5.31Zm-4.23,.19c.83,0,1.35-.36,1.7-.62,.09,.19,.15,.28,.24,.43h.68s-.08-.91-.08-1.43v-3.27c0-1.42-.4-2.18-2.11-2.18-.82,0-1.74,.24-2.41,.76l.38,.82c.52-.38,1.22-.66,1.99-.66,.87,0,1.12,.28,1.12,1.18v.79l-2.19,.13c-.98,.05-1.51,.59-1.51,1.85,0,1.11,.45,2.19,2.2,2.19m.15-.9c-1.03,0-1.3-.75-1.3-1.31,0-.68,.15-.87,.78-.95l1.89-.24v2.02c-.19,.19-.65,.48-1.36,.48"/>
      <path class="idk-fill" d="M184.1,93.39h1.02v-5.25l1.3-.54s.23-.11,.6-.11c.79,0,.96,.33,.96,1.41v4.48h1.03v-4.88c0-1.47-.69-1.99-1.77-1.99-.37,0-.72,.08-1.04,.24l-1.18,.59c-.11-.31-.17-.44-.29-.64h-.71s.08,.91,.08,1.38v5.31Zm-4.2,2.98c2.11,0,2.77-1.16,2.81-2.09v-.13c0-1.77-1.15-1.77-1.45-1.77h-2.41c-.4,0-.62-.17-.49-.4l.4-.87s.33,.13,1,.13c1.33,0,2.56-.56,2.56-2.41,0-.48-.29-1.07-.53-1.33,.33-.07,.67-.13,.95-.24v-.58h-1.83s-.58-.19-1.14-.19c-1.28,0-2.52,.76-2.52,2.42,0,1.27,.79,1.81,.79,1.81l-.75,1.19c-.15,.21-.11,.68,.35,1.08,0,0-.6,.45-.6,1.32,0,1.13,.55,2.04,2.86,2.04m-.13-5.96c-1.08,0-1.42-.55-1.42-1.54,0-.9,.33-1.54,1.46-1.54,1.03,0,1.42,.6,1.42,1.54s-.33,1.54-1.46,1.54m.09,5.09c-1.65,0-1.83-.71-1.83-1.23,0-.65,.32-.94,.32-.94h2.72c.25,0,.65,0,.65,.91,0,.55-.47,1.26-1.86,1.26m-5.23-2.11h1.02v-6.69h-1.02v6.69Zm.51-7.87c.37,0,.71-.33,.71-.71,0-.42-.33-.71-.71-.71s-.7,.29-.7,.71c0,.37,.33,.71,.7,.71m-3.98,8.06c1.23,0,2.15-.58,2.15-1.9,0-.95-.44-1.42-1.02-1.7-.76-.39-1.54-.62-2.11-.95-.24-.15-.39-.39-.39-.71,0-.58,.35-.9,1.14-.9,.62,0,1.35,.19,1.82,.48l.33-.81c-.63-.38-1.44-.58-2.15-.58-1.32,0-2.1,.69-2.1,1.79,0,.9,.38,1.35,1.04,1.69,.65,.31,1.36,.56,1.86,.8,.39,.19,.55,.55,.55,.88,0,.83-.71,.94-1.33,.94-.99,0-2.03-.5-2.03-.5l-.34,.82s1.04,.64,2.57,.64m-6.25,0c1.53,0,2.57-.62,2.57-.62l-.33-.81s-1.04,.47-2.03,.47-1.51-.43-1.55-2.36h4.05v-.86c0-2.52-1.46-2.89-2.56-2.89-.99,0-2.56,.43-2.56,3.6s1.42,3.47,2.41,3.47m-1.35-4.18c.04-1.42,.62-2.02,1.55-2.02,.84,0,1.44,.52,1.44,2.02h-3Zm-5.61,4.04c2.01,0,3.22-.9,3.22-4.74s-1.47-4.57-3.42-4.57c-.6,0-2.76,.08-2.76,.08v9.15s2.22,.08,2.96,.08m0-.99c-.76,0-1.87-.04-1.87-.04v-7.25s1-.04,1.67-.04c1.95,0,2.26,1.27,2.26,3.59,0,2.18-.13,3.75-2.06,3.75m-10.22,.94h1.02v-5.81h1.61v-.88h-1.61v-1.36c0-.75,.19-1.08,.71-1.08,.48,0,.95,.13,.95,.13l.24-.72s-.67-.28-1.39-.28c-.95,0-1.52,.62-1.52,1.85v1.47h-1v.88h1v5.81Zm-4.56,.19c1.15,0,2.81-.52,2.81-3.47s-1.71-3.6-2.81-3.6-2.79,.52-2.79,3.6,1.66,3.47,2.79,3.47m.05-.88c-1.04,0-1.78-.55-1.78-2.58s.74-2.72,1.69-2.72c1.06,0,1.78,.7,1.78,2.72s-.78,2.58-1.69,2.58m-10.03,.88c1.52,0,2.57-.62,2.57-.62l-.33-.81s-1.04,.47-2.04,.47-1.51-.43-1.55-2.36h4.05v-.86c0-2.52-1.46-2.89-2.56-2.89-.99,0-2.56,.43-2.56,3.6s1.42,3.47,2.41,3.47m-1.35-4.18c.04-1.42,.62-2.02,1.55-2.02,.84,0,1.45,.52,1.45,2.02h-3Zm-3.04,4.15c.56,0,1.33-.31,1.33-.31l-.24-.74s-.55,.17-.92,.17c-.53,0-.63-.19-.63-.95v-4.15h1.59v-.88h-1.59v-1.87l-1.02,.2v1.67h-1.02v.88h1.02v4.13c0,1.51,.39,1.83,1.49,1.83m-6.77,.03c.4,0,.71-.07,.96-.19l1.22-.58c.07,.24,.15,.42,.26,.58h.72s-.08-.91-.08-1.42v-5.27h-1.03v5.35l-1.36,.48s-.28,.08-.48,.08c-.79,0-1.06-.48-1.06-1.34v-4.58h-1.02v4.75c0,1.55,.81,2.13,1.87,2.13m-4.19-.03c.56,0,1.33-.31,1.33-.31l-.24-.74s-.55,.17-.92,.17c-.54,0-.63-.19-.63-.95v-4.15h1.59v-.88h-1.59v-1.87l-1.02,.2v1.67h-1.02v.88h1.02v4.13c0,1.51,.39,1.83,1.48,1.83m-4.7-.16h1.02v-6.69h-1.02v6.69Zm.51-7.87c.37,0,.71-.33,.71-.71,0-.42-.34-.71-.71-.71s-.7,.29-.7,.71c0,.37,.33,.71,.7,.71m-2.96,8.03c.56,0,1.33-.31,1.33-.31l-.24-.74s-.55,.17-.92,.17c-.54,0-.63-.19-.63-.95v-4.15h1.59v-.88h-1.59v-1.87l-1.02,.2v1.67h-1.02v.88h1.02v4.13c0,1.51,.39,1.83,1.48,1.83m-5.57,.03c1.23,0,2.15-.58,2.15-1.9,0-.95-.44-1.42-1.02-1.7-.76-.39-1.54-.62-2.11-.95-.24-.15-.39-.39-.39-.71,0-.58,.35-.9,1.14-.9,.62,0,1.35,.19,1.82,.48l.33-.81c-.63-.38-1.45-.58-2.16-.58-1.32,0-2.1,.69-2.1,1.79,0,.9,.38,1.35,1.04,1.69,.66,.31,1.36,.56,1.86,.8,.39,.19,.55,.55,.55,.88,0,.83-.71,.94-1.33,.94-.99,0-2.03-.5-2.03-.5l-.33,.82s1.04,.64,2.57,.64m-8.66-.19h1.02v-5.25l1.3-.54s.23-.11,.6-.11c.79,0,.96,.33,.96,1.41v4.48h1.03v-4.88c0-1.47-.7-1.99-1.77-1.99-.38,0-.72,.08-1.04,.24l-1.18,.59c-.11-.31-.17-.44-.29-.64h-.71s.08,.91,.08,1.38v5.31Zm-3.01,0h1.11v-9.2h-1.11v9.2Z"/>
    </g>
  </g>
</svg>
