<svg width="71" height="47" viewBox="0 0 71 47" fill="none" xmlns="http://www.w3.org/2000/svg">
<path d="M33.439 31.9395H47.0422V29.8165H33.439V31.9395ZM20.8647 26.5039H23.1137V18.5605L23.0236 17.446L29.2338 26.5039H32.2788L25.389 16.8179L31.8658 9.08246H28.8771L23.0236 16.2607L23.1137 15.1815V0.444733L20.8647 1.07277V26.5039ZM10.3629 26.9904C10.9261 26.9904 11.5155 26.8533 11.9886 26.641L15.2139 25.2124C15.3904 25.6989 15.5706 26.0837 15.8071 26.4994H17.4029C17.4029 26.4994 17.2264 24.1288 17.2264 22.8064V0.444733L14.9511 1.07277V9.85203C14.2715 9.29475 13.1488 8.59595 11.6958 8.59595C9.12383 8.59595 5.7221 9.88299 5.7221 17.8263C5.71835 24.6596 7.81721 26.9904 10.3629 26.9904ZM10.5694 24.5534C8.23397 24.5534 8.05375 19.9537 8.05375 17.8308C8.05375 12.5367 9.70956 11.0373 12.045 11.0373C13.5806 11.0373 14.4705 11.7671 14.9436 12.258V23.3018L12.0149 24.3146C12.0187 24.3102 11.249 24.5534 10.5694 24.5534ZM0.416767 26.5039H2.66581V9.08688H0.416767V26.5039ZM1.53941 6.02188C2.36919 6.02188 3.10511 5.15059 3.10511 4.17757C3.10511 3.09841 2.36544 2.33327 1.53941 2.33327C0.739668 2.33327 0 3.09841 0 4.17757C0.00375466 5.15059 0.739668 6.02188 1.53941 6.02188Z" fill="white"/>
<path d="M69.1083 46.6764H69.4762V44.4429L69.9456 44.2129C69.9456 44.2129 70.0282 44.1687 70.1633 44.1687C70.4487 44.1687 70.5125 44.3102 70.5125 44.7658V46.672H70.8842V44.5933C70.8842 43.9652 70.6327 43.7441 70.2459 43.7441C70.1108 43.7441 69.9869 43.7795 69.8705 43.8458L69.4462 44.0979C69.4086 43.9652 69.3824 43.9078 69.3411 43.8237H69.0857C69.0857 43.8237 69.1158 44.2129 69.1158 44.412V46.6764H69.1083ZM67.5726 46.756C67.9894 46.756 68.5864 46.5349 68.5864 45.2832C68.5864 43.9741 67.9669 43.753 67.5726 43.753C67.1821 43.753 66.5626 43.9741 66.5626 45.2832C66.5626 46.5349 67.1596 46.756 67.5726 46.756ZM67.5914 46.3801C67.2159 46.3801 66.9493 46.1457 66.9493 45.2832C66.9493 44.4252 67.2159 44.1289 67.5576 44.1289C67.9406 44.1289 68.1996 44.4252 68.1996 45.2832C68.1996 46.1457 67.918 46.3801 67.5914 46.3801ZM65.6803 46.6764H66.0482V43.8281H65.6803V46.6764ZM65.8642 43.3284C65.9994 43.3284 66.1196 43.1868 66.1196 43.0276C66.1196 42.8507 65.9994 42.7269 65.8642 42.7269C65.7328 42.7269 65.6127 42.8507 65.6127 43.0276C65.6127 43.1868 65.7366 43.3284 65.8642 43.3284ZM64.7942 46.7472C64.9969 46.7472 65.271 46.6145 65.271 46.6145L65.1846 46.3005C65.1846 46.3005 64.9856 46.3757 64.8505 46.3757C64.6552 46.3757 64.6214 46.2961 64.6214 45.9732V44.2085H65.1959V43.8326H64.6214V43.0365L64.2572 43.1205V43.8326H63.8893V44.2085H64.2572V45.9688C64.2572 46.6101 64.3999 46.7472 64.7942 46.7472ZM62.5676 46.756C62.868 46.756 63.0558 46.6012 63.1797 46.4951C63.2134 46.5747 63.2322 46.6145 63.266 46.6764H63.5138C63.5138 46.6764 63.4838 46.2872 63.4838 46.0661V44.6773C63.4838 44.0758 63.3411 43.7485 62.7216 43.7485C62.425 43.7485 62.0946 43.8503 61.8505 44.0714L61.9857 44.4208C62.1734 44.2616 62.425 44.1422 62.7066 44.1422C63.022 44.1422 63.1121 44.2616 63.1121 44.6419V44.9781L62.3198 45.0356C61.9669 45.0577 61.7754 45.2877 61.7754 45.8228C61.7754 46.2961 61.9406 46.756 62.5676 46.756ZM62.6202 46.3757C62.2485 46.3757 62.1509 46.0572 62.1509 45.8184C62.1509 45.5265 62.2034 45.4469 62.4325 45.4159L63.1158 45.3142V46.1722C63.0482 46.2518 62.8793 46.3757 62.6202 46.3757ZM60.664 46.756C61.0695 46.756 61.3324 46.6145 61.475 46.5305L61.3586 46.1988C61.2385 46.2607 61.0282 46.3536 60.7316 46.3536C60.3637 46.3536 60.1947 46.0218 60.1947 45.2434C60.1947 44.4385 60.4125 44.1466 60.7504 44.1466C60.9869 44.1466 61.2047 44.2129 61.3173 44.2704L61.4412 43.9299C61.3173 43.8635 61.0395 43.753 60.7354 43.753C60.4275 43.753 59.8117 43.8945 59.8117 45.2257C59.8117 46.557 60.2773 46.756 60.664 46.756ZM58.9256 46.6764H59.2936V43.8281H58.9256V46.6764ZM59.1096 43.3284C59.2448 43.3284 59.3649 43.1868 59.3649 43.0276C59.3649 42.8507 59.2448 42.7269 59.1096 42.7269C58.9782 42.7269 58.858 42.8507 58.858 43.0276C58.858 43.1868 58.9782 43.3284 59.1096 43.3284ZM56.5377 46.6764H56.9056V44.4429L57.3749 44.2129C57.3749 44.2129 57.4576 44.1687 57.5927 44.1687C57.8781 44.1687 57.9419 44.3102 57.9419 44.7658V46.672H58.3136V44.5933C58.3136 43.9652 58.0621 43.7441 57.6753 43.7441C57.5402 43.7441 57.4163 43.7795 57.2999 43.8458L56.8756 44.0979C56.838 43.9652 56.8117 43.9078 56.7704 43.8237H56.5151C56.5151 43.8237 56.5452 44.2129 56.5452 44.412V46.6764H56.5377ZM54.7955 46.756C54.9419 46.756 55.0508 46.7295 55.1447 46.6764L55.584 46.4332C55.6065 46.5349 55.6365 46.6101 55.6741 46.6764H55.9369C55.9369 46.6764 55.9069 46.2872 55.9069 46.0705V43.8281H55.5352V46.1059L55.0433 46.3093C55.0433 46.3093 54.9419 46.3447 54.8706 46.3447C54.5852 46.3447 54.4876 46.1413 54.4876 45.7742V43.8281H54.1197V45.8494C54.1197 46.5128 54.4125 46.756 54.7955 46.756ZM50.4776 46.6764H50.8456V44.4429L51.3074 44.2262C51.36 44.2041 51.4388 44.1687 51.5402 44.1687C51.7768 44.1687 51.8105 44.3721 51.8105 44.726V46.672H52.1823V44.4341L52.614 44.2218C52.6516 44.2041 52.7342 44.1643 52.8468 44.1643C53.1134 44.1643 53.151 44.3677 53.151 44.7215V46.6676H53.5189V44.6066C53.5189 43.9387 53.2636 43.7397 52.8919 43.7397C52.7905 43.7397 52.6403 43.8016 52.5389 43.8591L52.1184 44.0935C52.0208 43.8149 51.8293 43.7397 51.5928 43.7397C51.4726 43.7397 51.3337 43.8016 51.2323 43.8591L50.8156 44.0935C50.793 43.9962 50.7517 43.8989 50.7104 43.8193H50.4551C50.4551 43.8193 50.4851 44.2085 50.4851 44.4075V46.6764H50.4776ZM46.8206 46.6764H47.1885V44.4429L47.6541 44.2262C47.7067 44.2041 47.7855 44.1687 47.8869 44.1687C48.1235 44.1687 48.1573 44.3721 48.1573 44.726V46.672H48.529V44.4341L48.9608 44.2218C48.9983 44.2041 49.0809 44.1643 49.1935 44.1643C49.4601 44.1643 49.4977 44.3677 49.4977 44.7215V46.6676H49.8656V44.6066C49.8656 43.9387 49.6103 43.7397 49.2386 43.7397C49.1372 43.7397 48.987 43.8016 48.8857 43.8591L48.4651 44.0935C48.3675 43.8149 48.176 43.7397 47.9395 43.7397C47.8193 43.7397 47.6804 43.8016 47.579 43.8591L47.1623 44.0935C47.1397 43.9962 47.0984 43.8989 47.0571 43.8193H46.8018C46.8018 43.8193 46.8319 44.2085 46.8319 44.4075V46.6764H46.8206ZM45.2812 46.756C45.698 46.756 46.2949 46.5349 46.2949 45.2832C46.2949 43.9741 45.6754 43.753 45.2812 43.753C44.8907 43.753 44.2712 43.9741 44.2712 45.2832C44.2712 46.5349 44.8719 46.756 45.2812 46.756ZM45.3037 46.3801C44.9282 46.3801 44.6617 46.1457 44.6617 45.2832C44.6617 44.4252 44.9282 44.1289 45.2699 44.1289C45.6529 44.1289 45.912 44.4252 45.912 45.2832C45.912 46.1457 45.6304 46.3801 45.3037 46.3801ZM42.9233 46.7383C43.3776 46.7383 43.8018 46.557 43.9858 46.442L43.8507 46.0528C43.7005 46.1324 43.3475 46.3049 42.9571 46.3049C42.4314 46.3049 42.1986 45.9997 42.1986 44.6994C42.1986 43.4124 42.4539 43.1205 42.9833 43.1205C43.3175 43.1205 43.6517 43.2664 43.7868 43.3416L43.922 42.9613C43.7568 42.864 43.3325 42.6915 42.9646 42.6915C42.3938 42.6915 41.7818 42.8772 41.7818 44.6729C41.7781 46.5349 42.315 46.7383 42.9233 46.7383ZM38.872 46.756C38.9658 46.756 39.0597 46.7339 39.1386 46.6985L39.6642 46.4641C39.6942 46.5437 39.7205 46.6057 39.7618 46.6764H40.0209C40.0209 46.6764 39.9909 46.2872 39.9909 46.0705V42.4173L39.6192 42.519V43.952C39.5065 43.8591 39.3225 43.7485 39.086 43.7485C38.6655 43.7485 38.1098 43.9608 38.1098 45.2567C38.1135 46.3757 38.459 46.756 38.872 46.756ZM38.9058 46.358C38.5228 46.358 38.4965 45.6061 38.4965 45.2611C38.4965 44.3943 38.7668 44.151 39.1498 44.151C39.4014 44.151 39.5478 44.2704 39.6229 44.35V46.1545L39.1461 46.3182C39.1423 46.3182 39.0184 46.358 38.9058 46.358ZM35.8157 46.6764H36.1836V44.4429L36.653 44.2129C36.653 44.2129 36.7356 44.1687 36.8707 44.1687C37.1561 44.1687 37.2199 44.3102 37.2199 44.7658V46.672H37.5916V44.5933C37.5916 43.9652 37.3401 43.7441 36.9533 43.7441C36.8182 43.7441 36.6943 43.7795 36.5779 43.8458L36.1536 44.0979C36.1161 43.9652 36.0898 43.9078 36.0485 43.8237H35.7932C35.7932 43.8237 35.8232 44.2129 35.8232 44.412V46.6764H35.8157ZM34.2838 46.756C34.5842 46.756 34.7719 46.6012 34.8958 46.4951C34.9296 46.5747 34.9484 46.6145 34.9821 46.6764H35.23C35.23 46.6764 35.1999 46.2872 35.1999 46.0661V44.6773C35.1999 44.0758 35.0535 43.7485 34.4377 43.7485C34.1411 43.7485 33.8107 43.8503 33.5666 44.0714L33.7018 44.4208C33.8895 44.2616 34.1411 44.1422 34.4227 44.1422C34.7381 44.1422 34.8282 44.2616 34.8282 44.6419V44.9781L34.036 45.0356C33.683 45.0577 33.4878 45.2877 33.4878 45.8228C33.4915 46.2961 33.6568 46.756 34.2838 46.756ZM34.3363 46.3757C33.9646 46.3757 33.867 46.0572 33.867 45.8184C33.867 45.5265 33.9196 45.4469 34.1486 45.4159L34.832 45.3142V46.1722C34.7644 46.2518 34.5954 46.3757 34.3363 46.3757Z" fill="white"/>
<path d="M66.4988 40.1835H66.8668V37.95L67.3361 37.72C67.3361 37.72 67.4187 37.6758 67.5539 37.6758C67.8392 37.6758 67.9031 37.8173 67.9031 38.2729V40.1791H68.2748V38.1004C68.2748 37.4724 68.0232 37.2512 67.6365 37.2512C67.5013 37.2512 67.3774 37.2866 67.261 37.3529L66.8368 37.605C66.7992 37.4768 66.7729 37.4193 66.7316 37.3308H66.4763C66.4763 37.3308 66.5063 37.72 66.5063 37.9191V40.1835H66.4988ZM64.9819 41.4529C65.7441 41.4529 65.9807 40.9575 65.9957 40.5639V40.5064C65.9957 39.7545 65.5789 39.7545 65.4738 39.7545H64.6027C64.4563 39.7545 64.3812 39.6793 64.4225 39.582L64.5689 39.2105C64.5689 39.2105 64.6891 39.268 64.9294 39.268C65.4062 39.268 65.853 39.0292 65.853 38.2419C65.853 38.0385 65.7479 37.7864 65.6615 37.6802C65.7817 37.6537 65.9018 37.6227 66.0032 37.5785V37.3353H65.3424C65.3424 37.3353 65.1359 37.2556 64.9331 37.2556C64.4713 37.2556 64.0245 37.5785 64.0245 38.2862C64.0245 38.8257 64.3099 39.0557 64.3099 39.0557L64.0395 39.5643C63.987 39.6572 64.002 39.8562 64.1634 40.0243C64.1634 40.0243 63.9457 40.2189 63.9457 40.586C63.9457 41.0637 64.1447 41.4529 64.9819 41.4529ZM64.9331 38.9186C64.5427 38.9186 64.4225 38.6842 64.4225 38.264C64.4225 37.8837 64.5427 37.6095 64.9482 37.6095C65.3199 37.6095 65.4588 37.866 65.4588 38.264C65.4588 38.6665 65.3386 38.9186 64.9331 38.9186ZM64.9669 41.0814C64.3737 41.0814 64.3061 40.7806 64.3061 40.5551C64.3061 40.2764 64.4225 40.157 64.4225 40.157H65.4025C65.4926 40.157 65.639 40.157 65.639 40.5462C65.639 40.7806 65.4701 41.0814 64.9669 41.0814ZM63.0746 40.1835H63.4425V37.3353H63.0746V40.1835ZM63.2586 36.8355C63.3937 36.8355 63.5139 36.6939 63.5139 36.5347C63.5139 36.3578 63.3937 36.234 63.2586 36.234C63.1271 36.234 63.007 36.3578 63.007 36.5347C63.007 36.6939 63.1309 36.8355 63.2586 36.8355ZM61.8205 40.2631C62.2673 40.2631 62.5977 40.0199 62.5977 39.4538C62.5977 39.0513 62.44 38.8523 62.2298 38.7329C61.9557 38.5692 61.6741 38.4719 61.4676 38.3304C61.3812 38.2685 61.3287 38.1667 61.3287 38.0296C61.3287 37.7864 61.4526 37.6493 61.7379 37.6493C61.9594 37.6493 62.226 37.7289 62.395 37.8527L62.5151 37.5077C62.2899 37.3485 61.9932 37.2645 61.7379 37.2645C61.2611 37.2645 60.9795 37.5608 60.9795 38.0252C60.9795 38.4056 61.1146 38.6002 61.3549 38.7417C61.5915 38.87 61.8468 38.9805 62.027 39.0823C62.166 39.1619 62.226 39.3167 62.226 39.4582C62.226 39.812 61.9707 39.8563 61.7492 39.8563C61.3925 39.8563 61.0133 39.644 61.0133 39.644L60.8931 39.9934C60.8931 39.9889 61.2686 40.2631 61.8205 40.2631ZM59.564 40.2631C60.1159 40.2631 60.4914 40.0022 60.4914 40.0022L60.3712 39.6572C60.3712 39.6572 59.9958 39.8563 59.6353 39.8563C59.2786 39.8563 59.0871 39.6749 59.0759 38.8523H60.5402V38.4896C60.5402 37.4193 60.0145 37.2601 59.6165 37.2601C59.2598 37.2601 58.6929 37.4414 58.6929 38.7904C58.6929 40.1216 59.2073 40.2631 59.564 40.2631ZM59.0759 38.4852C59.0909 37.8837 59.2974 37.6272 59.6353 37.6272C59.9394 37.6272 60.1572 37.8483 60.1572 38.4852H59.0759ZM57.0483 40.2057C57.773 40.2057 58.2123 39.8253 58.2123 38.1889C58.2123 36.5834 57.6791 36.2428 56.977 36.2428C56.7592 36.2428 55.982 36.2782 55.982 36.2782V40.1703C55.982 40.1703 56.7818 40.2057 57.0483 40.2057ZM57.0483 39.7855C56.7743 39.7855 56.3725 39.7678 56.3725 39.7678V36.6807C56.3725 36.6807 56.733 36.663 56.977 36.663C57.6829 36.663 57.7918 37.2026 57.7918 38.1889C57.7918 39.1176 57.743 39.7855 57.0483 39.7855ZM53.3575 40.1835H53.7255V37.7112H54.3074V37.3353H53.7255V36.7559C53.7255 36.4374 53.7931 36.2959 53.9808 36.2959C54.1535 36.2959 54.3262 36.3534 54.3262 36.3534L54.4126 36.0482C54.4126 36.0482 54.1723 35.9288 53.9095 35.9288C53.5678 35.9288 53.3575 36.1898 53.3575 36.7161V37.3441H52.9933V37.72H53.3575V40.1835ZM51.7092 40.2631C52.126 40.2631 52.723 40.042 52.723 38.7904C52.723 37.4812 52.1035 37.2601 51.7092 37.2601C51.3187 37.2601 50.6992 37.4812 50.6992 38.7904C50.6992 40.042 51.2962 40.2631 51.7092 40.2631ZM51.728 39.8872C51.3525 39.8872 51.0859 39.6528 51.0859 38.7904C51.0859 37.9323 51.3525 37.636 51.6942 37.636C52.0772 37.636 52.3362 37.9323 52.3362 38.7904C52.3362 39.6528 52.0584 39.8872 51.728 39.8872ZM48.1047 40.2631C48.6567 40.2631 49.0321 40.0022 49.0321 40.0022L48.912 39.6572C48.912 39.6572 48.5365 39.8563 48.1761 39.8563C47.8194 39.8563 47.6317 39.6749 47.6166 38.8523H49.081V38.4896C49.081 37.4193 48.5553 37.2601 48.1573 37.2601C47.8006 37.2601 47.2337 37.4414 47.2337 38.7904C47.2337 40.1216 47.7443 40.2631 48.1047 40.2631ZM47.6129 38.4852C47.6279 37.8837 47.8344 37.6272 48.1723 37.6272C48.4765 37.6272 48.6942 37.8483 48.6942 38.4852H47.6129ZM46.5165 40.2499C46.7193 40.2499 46.9934 40.1216 46.9934 40.1216L46.907 39.8076C46.907 39.8076 46.708 39.8828 46.5728 39.8828C46.3814 39.8828 46.3438 39.8032 46.3438 39.4803V37.7156H46.9183V37.3397H46.3438V36.5436L45.9759 36.6276V37.3397H45.6079V37.7156H45.9759V39.4759C45.9796 40.1128 46.1185 40.2499 46.5165 40.2499ZM44.0685 40.2631C44.2149 40.2631 44.3238 40.2366 44.4177 40.1835L44.857 39.9403C44.8795 40.042 44.9095 40.1172 44.9508 40.1835H45.2099C45.2099 40.1835 45.1799 39.7943 45.1799 39.582V37.3397H44.8081V39.6174L44.3163 39.8209C44.3163 39.8209 44.2149 39.8563 44.1436 39.8563C43.8582 39.8563 43.7606 39.6528 43.7606 39.2857V37.3397H43.3926V39.3609C43.3926 40.0199 43.6855 40.2631 44.0685 40.2631ZM42.5554 40.2499C42.7581 40.2499 43.0322 40.1216 43.0322 40.1216L42.9458 39.8076C42.9458 39.8076 42.7468 39.8828 42.6117 39.8828C42.4164 39.8828 42.3826 39.8032 42.3826 39.4803V37.7156H42.9571V37.3397H42.3826V36.5436L42.0147 36.6276V37.3397H41.6467V37.7156H42.0147V39.4759C42.0184 40.1128 42.1611 40.2499 42.5554 40.2499ZM40.8582 40.1835H41.2262V37.3353H40.8582V40.1835ZM41.0422 36.8355C41.1774 36.8355 41.2975 36.6939 41.2975 36.5347C41.2975 36.3578 41.1774 36.234 41.0422 36.234C40.9108 36.234 40.7907 36.3578 40.7907 36.5347C40.7907 36.6939 40.9108 36.8355 41.0422 36.8355ZM39.9684 40.2499C40.1711 40.2499 40.4452 40.1216 40.4452 40.1216L40.3589 39.8076C40.3589 39.8076 40.1599 39.8828 40.0247 39.8828C39.8295 39.8828 39.7957 39.8032 39.7957 39.4803V37.7156H40.3701V37.3397H39.7957V36.5436L39.4277 36.6276V37.3397H39.0598V37.7156H39.4277V39.4759C39.4352 40.1128 39.5742 40.2499 39.9684 40.2499ZM37.9559 40.2631C38.3989 40.2631 38.7331 40.0199 38.7331 39.4538C38.7331 39.0513 38.5717 38.8523 38.3651 38.7329C38.0911 38.5692 37.8095 38.4719 37.603 38.3304C37.5166 38.2685 37.464 38.1667 37.464 38.0296C37.464 37.7864 37.5879 37.6493 37.8733 37.6493C38.0948 37.6493 38.3614 37.7289 38.5304 37.8527L38.6505 37.5077C38.4215 37.3485 38.1286 37.2645 37.8733 37.2645C37.3964 37.2645 37.1148 37.5608 37.1148 38.0252C37.1148 38.4056 37.25 38.6002 37.4903 38.7417C37.7269 38.87 37.9822 38.9805 38.1624 39.0823C38.3013 39.1619 38.3614 39.3167 38.3614 39.4582C38.3614 39.812 38.1061 39.8563 37.8846 39.8563C37.5279 39.8563 37.1486 39.644 37.1486 39.644L37.0285 39.9934C37.0285 39.9889 37.4077 40.2631 37.9559 40.2631ZM34.832 40.1835H35.2V37.95L35.6693 37.72C35.6693 37.72 35.7519 37.6758 35.8871 37.6758C36.1724 37.6758 36.2363 37.8173 36.2363 38.2729V40.1791H36.608V38.1004C36.608 37.4724 36.3564 37.2512 35.9697 37.2512C35.8345 37.2512 35.7069 37.2866 35.5942 37.3529L35.1699 37.605C35.1324 37.4768 35.1061 37.4193 35.0648 37.3308H34.8095C34.8095 37.3308 34.8395 37.72 34.8395 37.9191V40.1835H34.832ZM33.7432 40.1835H34.1449V36.2649H33.7432V40.1835Z" fill="white"/>
</svg>
