<svg width="47" height="54" viewBox="0 0 47 54" fill="none" xmlns="http://www.w3.org/2000/svg">
<path d="M0.422852 26.8557C0.422852 26.8601 0.422852 26.8646 0.422852 26.869C0.422852 41.3271 10.6168 53.0475 23.1911 53.0475V47.8109C13.1324 47.8109 4.97726 38.4346 4.97726 26.8646C4.97726 26.8601 4.97726 26.8557 4.97726 26.8513H0.422852V26.8557Z" fill="white"/>
<path d="M45.8205 23.9804C44.5665 10.8845 34.917 0.694336 23.1912 0.694336V2.44134C34.0759 2.44134 43.0458 11.8531 44.2924 23.9848H45.8205V23.9804Z" fill="white"/>
<path d="M25.1359 47.6381L24.7755 48.6951C25.2373 48.9782 25.8793 49.1728 26.4838 49.1728C27.7416 49.1728 29.0257 48.4563 29.0257 46.5501V41.3356H27.9031V41.7602C27.9031 41.8486 27.9106 41.915 27.9106 41.915H27.8806C27.8806 41.915 27.5051 41.2073 26.4538 41.2073C25.0646 41.2073 24.3174 42.4457 24.3174 43.9716C24.3174 45.4975 25.1021 46.7801 26.4801 46.7801C27.1221 46.7801 27.5389 46.5191 27.8205 46.0282H27.8393C27.8393 46.0282 27.8205 46.1918 27.8205 46.3245V46.6518C27.8205 47.6425 27.1972 48.0008 26.4613 48.0008C25.7404 48.0008 25.1359 47.6381 25.1359 47.6381ZM26.7429 45.6169C25.9694 45.6169 25.5339 44.9004 25.5339 43.9318C25.5339 42.9941 25.9394 42.3838 26.6678 42.3838C27.3211 42.3838 27.858 42.7199 27.858 43.9849C27.858 45.2365 27.3174 45.6169 26.7429 45.6169ZM30.0808 46.8906H31.2785V44.6925C31.2785 44.3652 31.3086 44.06 31.3837 43.7903C31.6089 42.9632 32.1872 42.6271 32.6978 42.6271C32.8592 42.6271 32.9794 42.6492 32.9794 42.6492V41.2869C32.9794 41.2869 32.8743 41.2648 32.7616 41.2648C32.0257 41.2648 31.4475 41.8973 31.2297 42.689H31.2109C31.2109 42.689 31.2297 42.5032 31.2297 42.2953V41.3356H30.077V46.8906H30.0808ZM33.0695 45.2896C33.0695 46.3997 33.843 47.0189 34.7028 47.0189C35.7991 47.0189 36.1784 46.0415 36.1671 46.0415H36.1859C36.1859 46.0415 36.1671 46.2139 36.1671 46.4351V46.8906H37.271V43.4187C37.271 42.0167 36.5351 41.2118 35.2697 41.2118C34.1283 41.2118 33.3811 41.8973 33.3811 41.8973L33.8355 42.888C33.8355 42.888 34.47 42.3573 35.1571 42.3573C35.6865 42.3573 36.0845 42.6094 36.0845 43.3347V43.4099H35.923C35.1383 43.4055 33.0695 43.5249 33.0695 45.2896ZM34.2785 45.2232C34.2785 44.4492 35.2697 44.3519 35.8855 44.3519H36.092V44.4802C36.092 45.1569 35.6377 45.9397 35.0069 45.9397C34.515 45.9442 34.2785 45.5948 34.2785 45.2232ZM37.8942 46.8906H42.1558V45.7142H39.9631C39.6514 45.7142 39.5087 45.7451 39.5087 45.7451V45.723C39.5087 45.723 39.7077 45.5284 39.9255 45.2144L42.0882 42.0919V41.34H37.9881V42.5165H40.0194C40.3197 42.5165 40.4624 42.4944 40.4624 42.4944V42.5165C40.4624 42.5165 40.2747 42.7111 40.0569 43.0251L37.8942 46.1476V46.8906Z" fill="white"/>
<path d="M24.6597 32.401H25.8612V29.9729H26.4844L27.761 32.401H29.139L27.4269 29.3537V29.3316L28.9475 26.8504H27.6146L26.4544 28.8097H25.8612V25.7447H24.6597V32.401ZM29.4168 30.4196C29.4168 31.9322 30.0589 32.5292 31.0876 32.5292C31.9099 32.5292 32.5219 31.9543 32.7585 31.3749H32.7772C32.7772 31.3749 32.7585 31.5474 32.7585 31.7641V32.3966H33.9112V26.8504H32.7134V29.3979C32.7134 30.3886 32.2328 31.2687 31.3617 31.2687C30.7685 31.2687 30.6146 30.8132 30.6146 30.1365V26.8504H29.4168V30.4196ZM34.9137 32.401H36.1114V29.8534C36.1114 29.5925 36.1302 29.3404 36.1977 29.1148C36.378 28.4514 36.8511 27.9826 37.4931 27.9826C38.1089 27.9826 38.2591 28.4382 38.2591 29.1148V32.401H39.4493V28.8318C39.4493 27.3634 38.8448 26.7221 37.7785 26.7221C36.806 26.7221 36.2766 27.4076 36.0701 27.8765H36.0513C36.0513 27.8765 36.0701 27.704 36.0701 27.4961V26.8548H34.9174V32.401H34.9137ZM40.0275 31.711C40.0275 31.711 40.6996 32.5292 41.8973 32.5292C43.0387 32.5292 43.7409 31.7906 43.7409 30.8663C43.7409 29.0795 41.398 29.1812 41.398 28.3983C41.398 28.0489 41.6983 27.8986 42.01 27.8986C42.7459 27.8986 43.1927 28.3762 43.1927 28.3762L43.6357 27.3546C43.6357 27.3546 43.1063 26.7221 42.0212 26.7221C40.9812 26.7221 40.1777 27.3192 40.1777 28.3541C40.1777 30.1409 42.5206 30.0304 42.5206 30.8574C42.5206 31.1847 42.2277 31.3572 41.8861 31.3572C41.1013 31.3572 40.5719 30.7469 40.5719 30.7469L40.0275 31.711ZM44.6307 30.3621C44.6307 32.2241 45.9636 32.4496 46.6319 32.4496C46.8572 32.4496 46.9999 32.4187 46.9999 32.4187V31.2112C46.9999 31.2112 46.9135 31.2334 46.7821 31.2334C46.4517 31.2334 45.8284 31.1007 45.8284 30.1896V28.0357H46.9248V26.9388H45.8284V25.6341H44.657V26.9388H44.0037V28.0357H44.627V30.3621H44.6307Z" fill="white"/>
<path d="M24.599 37.6423C24.599 39.1549 25.241 39.752 26.2698 39.752C27.0921 39.752 27.7041 39.177 27.9406 38.5976H27.9594C27.9594 38.5976 27.9406 38.7701 27.9406 38.9868V39.6193H29.0933V34.0687H27.8956V36.6162C27.8956 37.6069 27.415 38.4871 26.5439 38.4871C25.9506 38.4871 25.7967 38.0315 25.7967 37.3548V34.0687H24.5952V37.6423H24.599ZM29.9419 39.6237H31.1396V37.0762C31.1396 36.8153 31.1584 36.5632 31.2259 36.3376C31.4062 35.6742 31.8793 35.2054 32.5213 35.2054C33.1333 35.2054 33.2873 35.6609 33.2873 36.3376V39.6237H34.4775V36.0545C34.4775 34.5862 33.873 33.9449 32.8067 33.9449C31.8342 33.9449 31.3048 34.6304 31.0983 35.0992H31.0795C31.0795 35.0992 31.0983 34.9267 31.0983 34.7188V34.0775H29.9456V39.6237H29.9419Z" fill="white"/>
<path d="M36.6406 34.0737H35.4429V39.6243H36.6406V34.0737Z" fill="white"/>
</svg>
