<?xml version="1.0" encoding="UTF-8"?>
<svg id="Ebene_2" data-name="Ebene 2" xmlns="http://www.w3.org/2000/svg" width="129.47px" viewBox="0 0 129.47 126.57">
  <defs>
    <style>
      .kunst-fill {
        fill: #fff;
      }
    </style>
  </defs>
  <g id="Ebene_1-2" data-name="Ebene 1">
    <g>
      <path class="kunst-fill" d="M12.66,63.29s0-.02,0-.04H0s0,.02,0,.04c0,34.95,28.33,63.29,63.29,63.29v-12.66c-27.96,0-50.63-22.67-50.63-50.63Z"/>
      <path class="kunst-fill" d="M121.94,56.29h4.25C122.7,24.63,95.87,0,63.29,0V4.22c30.25,0,55.19,22.75,58.65,52.07Z"/>
      <path class="kunst-fill" d="M76.39,99.28c0,.21,.03,.37,.03,.37h-.08s-1.05-1.71-3.96-1.71c-3.86,0-5.93,3-5.93,6.68s2.18,6.79,6.01,6.79c1.79,0,2.94-.63,3.73-1.82h.05s-.05,.39-.05,.71v.79c0,2.39-1.73,3.26-3.78,3.26s-3.7-.87-3.7-.87l-1,2.55c1.29,.68,3.07,1.16,4.75,1.16,3.49,0,7.06-1.74,7.06-6.34v-12.6h-3.12v1.03Zm-3.23,9.31c-2.15,0-3.36-1.74-3.36-4.08s1.13-3.74,3.15-3.74c1.81,0,3.31,.82,3.31,3.87s-1.5,3.95-3.1,3.95Z"/>
      <path class="kunst-fill" d="M108.65,108.91v-.05s.55-.47,1.16-1.24l6.01-7.55v-1.82h-11.4v2.84h5.65c.84,0,1.23-.05,1.23-.05v.05s-.53,.47-1.13,1.24l-6.01,7.55v1.79h11.84v-2.84h-6.09c-.87,0-1.26,.08-1.26,.08Z"/>
      <path class="kunst-fill" d="M85.64,101.52h-.05s.05-.45,.05-.95v-2.31h-3.2v13.42h3.33v-5.31c0-.79,.08-1.53,.29-2.18,.63-2,2.23-2.81,3.65-2.81,.45,0,.79,.05,.79,.05v-3.29s-.29-.05-.6-.05c-2.05,0-3.65,1.53-4.25,3.45Z"/>
      <path class="kunst-fill" d="M96.86,97.94c-3.18,0-5.25,1.66-5.25,1.66l1.26,2.39s1.76-1.29,3.68-1.29c1.47,0,2.57,.6,2.57,2.37v.18h-.45c-2.18,0-7.93,.29-7.93,4.55,0,2.68,2.15,4.18,4.54,4.18,3.05,0,4.1-2.37,4.07-2.37h.05s-.05,.42-.05,.95v1.11h3.07v-8.39c0-3.39-2.05-5.34-5.57-5.34Zm2.28,7.92c0,1.63-1.26,3.52-3.02,3.52-1.37,0-2.02-.84-2.02-1.74,0-1.87,2.76-2.1,4.46-2.1h.58v.32Z"/>
      <polygon class="kunst-fill" points="75.06 69.23 79.29 63.23 75.59 63.23 72.36 67.97 70.7 67.97 70.7 60.56 67.37 60.56 67.37 76.65 70.7 76.65 70.7 70.78 72.44 70.78 75.98 76.65 79.81 76.65 75.06 69.28 75.06 69.23"/>
      <path class="kunst-fill" d="M89.89,74.17h.05s-.05,.42-.05,.95v1.53h3.2v-13.42h-3.33v6.16c0,2.39-1.34,4.52-3.75,4.52-1.65,0-2.07-1.1-2.07-2.74v-7.94h-3.33v8.63c0,3.66,1.79,5.1,4.65,5.1,2.28,0,3.99-1.39,4.65-2.79Z"/>
      <path class="kunst-fill" d="M128.87,73.83c-.92,0-2.65-.32-2.65-2.53v-5.21h3.05v-2.66h-3.05v-3.15h-3.26v3.15h-1.81v2.66h1.73v5.63c0,4.5,3.7,5.05,5.57,5.05,.63,0,1.02-.08,1.02-.08v-2.92s-.24,.05-.6,.05Z"/>
      <path class="kunst-fill" d="M113.9,66.97c0-.84,.84-1.21,1.71-1.21,2.05,0,3.28,1.16,3.28,1.16l1.23-2.47s-1.47-1.53-4.49-1.53-5.12,1.45-5.12,3.95c0,4.31,6.51,4.05,6.51,6.05,0,.79-.81,1.21-1.76,1.21-2.18,0-3.65-1.47-3.65-1.47l-1.52,2.34s1.86,1.97,5.2,1.97,5.12-1.79,5.12-4.02c0-4.31-6.51-4.08-6.51-5.97Z"/>
      <path class="kunst-fill" d="M105.17,68.7v7.94h3.31v-8.63c0-3.55-1.68-5.1-4.65-5.1-2.7,0-4.17,1.66-4.75,2.79h-.05s.05-.42,.05-.92v-1.55h-3.2v13.42h3.33v-6.16c0-.63,.05-1.24,.24-1.79,.5-1.6,1.81-2.74,3.6-2.74s2.13,1.1,2.13,2.74Z"/>
      <path class="kunst-fill" d="M76.37,86.85c0,2.39-1.34,4.52-3.75,4.52-1.65,0-2.07-1.1-2.07-2.74v-7.94h-3.33v8.63c0,3.66,1.79,5.1,4.65,5.1,2.28,0,3.99-1.39,4.65-2.79h.05s-.05,.42-.05,.95v1.53h3.2v-13.42h-3.33v6.16Z"/>
      <path class="kunst-fill" d="M85.39,87.95c0-.63,.05-1.24,.24-1.79,.5-1.6,1.81-2.74,3.6-2.74s2.13,1.1,2.13,2.74v7.94h3.31v-8.63c0-3.55-1.68-5.1-4.65-5.1-2.7,0-4.17,1.66-4.75,2.79h-.05s.05-.42,.05-.92v-1.55h-3.2v13.42h3.33v-6.16Z"/>
      <rect class="kunst-fill" x="97.34" y="80.69" width="3.33" height="13.42"/>
    </g>
  </g>
</svg>
