<svg width="355" height="24" viewBox="0 0 355 24" fill="none" xmlns="http://www.w3.org/2000/svg">
<g clip-path="url(#clip0_521_1278)">
<path d="M5.02823 2.4222C9.11181 -0.795209 16.0294 -0.699858 19.985 4.19301C20.0504 4.25839 20.0504 4.32105 19.985 4.38643C19.9524 4.41912 19.8244 4.41912 19.7591 4.32105C16.5113 0.425283 10.5928 2.19609 6.9584 5.15741C3.29135 8.15143 -0.631608 13.5592 2.80949 18.6782C6.31592 23.8925 12.8143 21.7049 17.445 17.3269C18.8933 15.943 21.1774 12.9816 21.1774 9.73153V17.4876C20.3716 18.9343 19.2445 20.2229 17.8942 21.2526C13.5194 24.7289 6.18525 24.0859 2.64887 18.8062C-1.75868 12.2079 0.332116 6.15724 5.02823 2.4222Z" fill="white"/>
<path d="M138.708 12.5757C136.876 12.7691 134.366 13.7989 134.012 15.3109V23.1651L130.988 21.6531V20.4626C126.58 24.6798 119.023 24.7425 115.163 18.9179C110.725 12.2216 112.846 6.20355 117.479 2.5339C121.563 -0.683515 128.48 -0.588163 132.436 4.3047C132.501 4.37008 132.501 4.46544 132.436 4.49813C132.371 4.56351 132.308 4.53082 132.243 4.46544C128.93 0.441626 122.818 2.30778 119.311 5.20645C115.644 8.23316 111.882 13.5428 115.356 18.7572C118.574 23.6173 129.412 21.2036 130.539 15.6351C130.925 13.7036 127.645 12.8345 124.171 12.5784H138.708V12.5757Z" fill="white"/>
<path d="M92.7407 23.4403V0.648682H96.7317C100.004 5.98561 107.104 17.316 108.381 19.7706H108.414C108.185 16.8556 108.217 13.2541 108.217 9.55446V0.648682H111.065V23.4375H107.303C104.292 18.4929 96.8978 6.31253 95.4903 3.75712H95.425C95.5883 6.34522 95.5883 10.2083 95.5883 14.3329V23.4348H92.7407V23.4403Z" fill="white"/>
<path d="M53.7536 0.596902L55.1447 6.16539C53.9469 3.08965 52.3624 0.790328 50.2907 0.790328H45.2761L45.2434 5.35627C45.2107 8.49741 46.2153 10.6987 48.6409 10.6987H50.1628C51.7172 10.6987 52.8171 8.98233 53.6583 6.94182L52.6565 10.6987C52.6238 10.7967 52.6238 10.8594 52.6565 10.9575L53.6583 14.7143C52.8498 12.6411 51.7499 10.8921 50.1628 10.8921H48.6409C46.2126 10.8921 45.2434 14.0005 45.2434 19.1822L45.2761 23.067H50.8733C53.495 23.067 55.436 19.0841 56.5359 16.0083L54.9188 23.2632H40.0981C41.8785 23.2632 42.3631 21.9037 42.3631 19.1495C42.3631 12.998 44.6935 10.794 47.7671 10.794C45.2107 10.794 42.3631 9.9195 42.3631 5.38624C42.3631 2.92619 42.3631 0.594177 40.0654 0.594177H53.7536V0.596902Z" fill="white"/>
<path d="M65.3371 4.04044L63.2027 0.512451H66.5513L78.5978 23.3722H68.6856C72.6249 23.3722 75.0533 23.0452 73.7738 20.4653L71.5741 16.1881C71.1793 15.3708 70.0305 14.9486 68.947 14.9486H63.4668C61.4985 14.9486 59.9223 15.7005 58.9694 17.692C57.2625 21.1546 59.2308 23.3749 62.9414 23.3749H56.0156L65.3371 4.04044ZM68.6529 14.7524C69.7691 14.7524 70.6566 14.3928 70.1312 13.3494L65.4677 4.20389L60.3796 14.7524H68.6529Z" fill="white"/>
<path d="M25.9552 13.3194V23.3041H22.9878V0.591461H31.8573C36.5208 0.591461 38.9981 3.13597 38.9981 6.66123C38.9981 9.63073 37.3021 11.4261 35.1187 12.0118C36.9781 12.5022 38.5762 13.9052 38.5762 17.82V18.798C38.5762 20.3645 38.5108 22.356 38.9029 23.3013H35.9681C35.5434 22.3233 35.5761 20.5607 35.5761 18.4057V17.9481C35.5761 14.717 34.6641 13.314 30.586 13.314H25.9552V13.3194ZM25.9552 10.7722H30.88C34.3701 10.7722 35.8701 9.46727 35.8701 6.92276C35.8701 4.50902 34.3048 3.13597 31.2393 3.13597H25.9579V10.7722H25.9552Z" fill="white"/>
<path d="M73.0142 0.670471V3.25584H80.3428V23.4593H83.3865V3.25584H88.0118V23.4593H91.0227V0.670471H73.0142Z" fill="white"/>
<path d="M155.398 4.19846L153.294 0.700439H156.596L168.474 23.3722H158.701C162.585 23.3722 164.978 23.048 163.718 20.4898L161.551 16.2481C161.162 15.439 160.029 15.0167 158.962 15.0167H153.555C151.614 15.0167 150.06 15.7604 149.12 17.7383C147.438 21.1709 149.379 23.3749 153.035 23.3749H146.208L155.398 4.19846ZM158.668 14.8205C159.768 14.8205 160.642 14.4637 160.124 13.4284L155.529 4.35919L150.512 14.8205H158.668Z" fill="white"/>
<path d="M166.628 0.711334H182.089L183.706 8.76985C181.863 3.98051 181.021 0.90476 178.304 0.90476H177.885C175.718 0.90476 175.846 2.55569 175.846 4.14124V18.8362C175.846 21.555 176.557 23.3667 179.954 23.3667H169.021C172.416 23.3667 172.999 21.555 172.999 18.8362V4.14397C172.999 2.55842 173.159 0.907485 170.992 0.907485H170.442C167.693 0.907485 166.819 4.11128 165.008 8.77258L166.628 0.711334Z" fill="white"/>
<path d="M280.617 18.8553V11.4179C280.617 10.5734 280.293 10.2492 279.675 10.2492H272.178C271.592 10.2492 271.301 10.5734 271.301 11.4179V18.8553C271.301 21.5523 271.592 23.4021 274.32 23.4021H265.135C267.86 23.4021 268.445 21.5523 268.445 18.8553V4.11129C268.445 2.71371 268.445 0.667755 266.27 0.667755H273.571C271.396 0.667755 271.301 2.71371 271.301 4.11129V8.94966C271.301 9.72882 271.592 10.053 272.178 10.053H279.675C280.29 10.053 280.617 9.72882 280.617 8.94966V4.11129C280.617 2.71371 280.552 0.667755 278.376 0.667755H285.645C283.47 0.667755 283.47 2.71371 283.47 4.11129V18.8553C283.47 21.5523 284.183 23.4021 286.911 23.4021H277.726C280.454 23.4021 280.617 21.5523 280.617 18.8553Z" fill="white"/>
<path d="M229.031 4.42456C233.686 10.5706 231.777 17.4958 226.831 21.4106C222.434 24.9059 215.095 24.2902 211.572 18.9833C207.11 12.2542 209.179 6.26892 213.9 2.54751C218.07 -0.75163 225.151 -0.686245 229.031 4.42456ZM211.765 18.8226C214.869 23.5138 221.4 21.6695 225.279 18.6618C228.933 15.8476 232.973 10.0557 228.835 4.58802C225.538 0.286334 219.491 2.32412 215.871 5.29907C212.282 8.24405 208.21 13.5156 211.765 18.8226Z" fill="white"/>
<path d="M300.556 0.621429L301.955 6.21989C300.752 3.1278 299.159 0.81758 297.077 0.81758H292.035L292.002 5.40532C291.969 8.5628 292.977 10.7749 295.416 10.7749H296.946C298.506 10.7749 299.611 9.05045 300.458 6.99905L299.45 10.7749C299.418 10.873 299.418 10.9384 299.45 11.0365L300.458 14.8124C299.644 12.7283 298.538 10.9711 296.946 10.9711H295.416C292.977 10.9711 292.002 14.0959 292.002 19.302L292.035 23.206H297.662C300.297 23.206 302.246 19.204 303.354 16.1119L301.729 23.4021H286.835C288.624 23.4021 289.111 22.0345 289.111 19.2693C289.111 13.0852 291.452 10.873 294.542 10.873C291.972 10.873 289.111 9.99306 289.111 5.43801C289.111 2.96434 289.111 0.621429 286.802 0.621429H300.556Z" fill="white"/>
<path d="M353.215 1.8392V9.70974C352.129 3.38661 350.024 0.425286 346.371 0.425286C343.673 0.425286 341.337 1.94 341.337 4.70518C341.337 7.47036 344.397 9.05046 347.49 10.5979C350.912 12.276 354.497 13.8589 354.497 18.0734C354.497 21.9909 351.47 23.9334 347.588 23.9334C344.593 23.9334 343.673 22.8137 339.527 22.8137V13.5292C340.349 21.1028 343.608 23.7045 347.588 23.7372C350.351 23.7372 353.117 22.4868 353.117 19.5881C353.117 16.7902 349.76 15.3409 346.436 13.6927C343.112 12.0799 339.756 9.60894 339.756 6.31797C339.756 2.10346 342.685 0.22641 346.368 0.22641C349.431 0.22641 350.68 1.8392 353.215 1.8392Z" fill="white"/>
<path d="M204.638 13.8016C204.638 9.53809 204.704 5.24186 204.802 2.84719H204.671C203.688 6.55225 200.016 16.3271 197.394 23.5111H194.674C192.709 17.6729 188.873 6.68574 187.857 2.7818H187.759C187.923 5.43801 188.021 10.4889 188.021 14.4255V23.5111H185.17V0.684082H189.66C192.249 7.76729 195.428 16.9183 196.215 19.806H196.248C196.806 17.6075 200.541 7.60383 203.228 0.684082H207.587V23.5111H204.638V13.8016Z" fill="white"/>
<path d="M250.726 0.684082H259.377C263.801 0.684082 266.85 3.17683 266.85 7.3423C266.85 11.7693 263.638 14.1313 259.181 14.1313H253.775V23.5111H250.726V0.684082ZM253.775 11.5732H259.051C262.165 11.5732 263.739 10.0639 263.739 7.40768C263.739 4.62071 261.838 3.24221 259.149 3.24221H253.775V11.5732Z" fill="white"/>
<path d="M336.614 12.8236H325.319V20.8603H337.725L337.333 23.4403H322.381V0.703156H337.169V3.28308H325.319V10.241H336.614V12.8236Z" fill="white"/>
<path d="M235.298 17.1471C235.921 19.9014 237.789 21.378 241.099 21.378C244.638 21.378 246.048 19.7052 246.048 17.5394C246.048 15.2428 244.935 13.9651 240.378 12.8808C235.001 11.5677 233.133 9.73152 233.133 6.51683C233.133 3.106 235.624 0.351715 240.704 0.351715C246.146 0.351715 248.373 3.50102 248.703 6.48414H245.621C245.193 4.4845 243.949 2.81177 240.606 2.81177C237.821 2.81177 236.28 4.05678 236.28 6.22261C236.28 8.35574 237.56 9.20845 241.556 10.1919C248.046 11.7666 249.193 14.292 249.193 17.2424C249.193 20.9148 246.473 23.8026 240.9 23.8026C235.164 23.8026 232.706 20.6533 232.216 17.1444H235.298V17.1471Z" fill="white"/>
<path d="M307.702 13.453V23.4539H304.729V0.705902H313.613C318.284 0.705902 320.767 3.25586 320.767 6.78657C320.767 9.76152 319.068 11.5596 316.879 12.148C318.742 12.6384 320.342 14.0441 320.342 17.9671V18.9479C320.342 20.5171 320.277 22.5113 320.669 23.4594H317.729C317.304 22.4786 317.337 20.7133 317.337 18.5556V18.0979C317.337 14.8614 316.422 13.4557 312.339 13.4557H307.702V13.453ZM307.702 10.903H312.635C316.131 10.903 317.634 9.59533 317.634 7.04538C317.634 4.62619 316.066 3.25313 312.995 3.25313H307.702V10.903Z" fill="white"/>
</g>
<defs>
<clipPath id="clip0_521_1278">
<rect width="354.5" height="24" fill="white"/>
</clipPath>
</defs>
</svg>
