<svg width="829" height="200" viewBox="0 0 829 200" fill="none" xmlns="http://www.w3.org/2000/svg">
<path d="M157.731 9.72919C173.984 -3.06156 201.516 -2.6825 217.259 16.769C217.519 17.0289 217.519 17.278 217.259 17.5379C217.129 17.6679 216.62 17.6679 216.36 17.278C203.433 1.79047 179.878 8.83027 165.413 20.603C150.818 32.5056 135.205 54.0041 148.901 74.3545C162.856 95.0839 188.719 86.3871 207.15 68.9826C212.914 63.4807 222.005 51.708 222.005 38.7873V69.6216C218.797 75.3725 214.312 80.4953 208.938 84.5892C191.526 98.4089 162.336 95.8529 148.261 74.8635C130.719 48.6322 139.041 24.5777 157.731 9.72919Z" fill="white"/>
<path d="M689.775 50.0942C682.483 50.8632 672.493 54.9571 671.085 60.968V92.1921L659.047 86.1812V81.4483C641.505 98.2139 611.427 98.463 596.063 75.3075C578.402 48.6862 586.842 24.7618 605.284 10.1732C621.536 -2.6176 649.068 -2.23853 664.811 17.213C665.071 17.4729 665.071 17.8519 664.811 17.9819C664.551 18.2418 664.302 18.1119 664.042 17.8519C650.856 1.85538 626.531 9.27423 612.576 20.7978C597.981 32.8305 583.007 53.939 596.832 74.6685C609.639 93.99 652.774 84.3942 657.259 62.2568C658.798 54.578 645.742 51.1231 631.916 50.105H689.775V50.0942Z" fill="white"/>
<path d="M506.825 93.2862V2.67869H522.709C535.733 23.8955 563.991 68.9394 569.073 78.6976H569.203C568.292 67.109 568.423 52.7912 568.423 38.0834V2.67869H579.756V93.2754H564.782C552.798 73.6181 523.37 25.1952 517.769 15.0362H517.509C518.159 25.3252 518.159 40.6827 518.159 57.08V93.2645H506.825V93.2862Z" fill="white"/>
<path d="M351.657 2.47284L357.194 24.6103C352.426 12.3827 346.12 3.2418 337.875 3.2418H317.917L317.786 21.3936C317.656 33.8811 321.655 42.6321 331.309 42.6321H337.365C343.552 42.6321 347.93 35.809 351.278 27.697L347.29 42.6321C347.16 43.022 347.16 43.2711 347.29 43.661L351.278 58.5962C348.06 50.3542 343.682 43.4011 337.365 43.4011H331.309C321.644 43.4011 317.786 55.7586 317.786 76.3582L317.917 91.8024H340.193C350.628 91.8024 358.353 75.9683 362.73 63.7407L356.294 92.5822H297.308C304.394 92.5822 306.323 87.1778 306.323 76.2282C306.323 51.773 315.598 43.0112 327.831 43.0112C317.656 43.0112 306.323 39.5346 306.323 21.5128C306.323 11.7329 306.323 2.46201 297.178 2.46201H351.657V2.47284Z" fill="white"/>
<path d="M397.76 16.1626L389.265 2.13722H402.592L450.537 93.0155H411.087C426.765 93.0155 436.43 91.7158 431.338 81.4594L422.583 64.4556C421.012 61.2065 416.44 59.5278 412.127 59.5278H390.316C382.483 59.5278 376.209 62.517 372.417 70.434C365.623 84.1995 373.457 93.0263 388.225 93.0263H360.661L397.76 16.1626ZM410.957 58.748C415.399 58.748 418.932 57.3183 416.84 53.1703L398.28 16.8125L378.029 58.748H410.957Z" fill="white"/>
<path d="M241.02 92.7445H229.21V2.45102H264.511C283.071 2.45102 292.931 12.5667 292.931 26.5813C292.931 38.3864 286.181 45.5237 277.491 47.8523C284.891 49.8017 291.251 55.3794 291.251 70.9428V74.8309C291.251 81.0584 290.991 88.9755 292.552 92.7336H280.871C279.181 88.8455 279.311 81.8382 279.311 73.2713V71.4518C279.311 58.6069 275.681 53.0292 259.451 53.0292H241.02V92.7445ZM241.02 42.9244H260.621C274.511 42.9244 280.481 37.7366 280.481 27.621C280.481 18.0252 274.251 12.5667 262.051 12.5667H241.031V42.9244H241.02Z" fill="white"/>
<path d="M428.315 2.76527V13.0434H457.483V93.362H469.596V13.0434H488.005V93.362H499.988V2.76527H428.315Z" fill="white"/>
<path d="M36.5791 120.568L28.2036 106.662H41.3465L88.6198 196.793H49.722C65.1836 196.793 74.7076 195.504 69.691 185.334L61.0663 168.471C59.5169 165.254 55.0095 163.576 50.7622 163.576H29.2438C21.5184 163.576 15.3316 166.532 11.5935 174.395C4.89744 188.042 12.6228 196.804 27.1743 196.804H0L36.5791 120.568ZM49.592 162.796C53.9693 162.796 57.4474 161.377 55.3887 157.262L37.0992 121.207L17.1302 162.796H49.592Z" fill="white"/>
<path d="M81.2737 106.705H142.806L149.242 138.741C141.907 119.701 138.559 107.474 127.745 107.474H126.077C117.452 107.474 117.961 114.037 117.961 120.34V178.76C117.961 189.569 120.789 196.771 134.311 196.771H90.7977C104.309 196.771 106.628 189.569 106.628 178.76V120.351C106.628 114.048 107.267 107.485 98.6422 107.485H96.4535C85.5102 107.485 82.0321 120.221 74.8268 138.752L81.2737 106.705Z" fill="white"/>
<path d="M534.948 178.836V149.269C534.948 145.911 533.658 144.622 531.199 144.622H501.359C499.029 144.622 497.87 145.911 497.87 149.269V178.836C497.87 189.558 499.029 196.912 509.886 196.912H473.329C484.175 196.912 486.504 189.558 486.504 178.836V120.221C486.504 114.665 486.504 106.532 477.847 106.532H506.907C498.249 106.532 497.87 114.665 497.87 120.221V139.456C497.87 142.554 499.029 143.843 501.359 143.843H531.199C533.647 143.843 534.948 142.554 534.948 139.456V120.221C534.948 114.665 534.688 106.532 526.03 106.532H554.96C546.303 106.532 546.303 114.665 546.303 120.221V178.836C546.303 189.558 549.142 196.912 559.998 196.912H523.441C534.298 196.912 534.948 189.558 534.948 178.836Z" fill="white"/>
<path d="M329.635 121.467C348.163 145.901 340.567 173.432 320.88 188.995C303.381 202.89 274.17 200.443 260.149 179.345C242.391 152.594 250.625 128.799 269.413 114.005C286.013 100.889 314.195 101.149 329.635 121.467ZM260.919 178.706C273.271 197.356 299.264 190.024 314.704 178.067C329.245 166.879 345.324 143.854 328.854 122.117C315.733 105.016 291.669 113.117 277.258 124.944C262.977 136.651 246.768 157.608 260.919 178.706Z" fill="white"/>
<path d="M614.304 106.347L619.873 128.604C615.084 116.312 608.745 107.127 600.456 107.127H580.39L580.26 125.366C580.13 137.918 584.139 146.713 593.847 146.713H599.936C606.145 146.713 610.544 139.857 613.914 131.702L609.905 146.713C609.775 147.102 609.775 147.362 609.905 147.752L613.914 162.763C610.674 154.478 606.275 147.492 599.936 147.492H593.847C584.139 147.492 580.26 159.915 580.26 180.612L580.39 196.132H602.786C613.274 196.132 621.032 180.222 625.442 167.929L618.974 196.912H559.695C566.814 196.912 568.753 191.475 568.753 180.482C568.753 155.897 578.071 147.102 590.369 147.102C580.141 147.102 568.753 143.604 568.753 125.496C568.753 115.662 568.753 106.347 559.565 106.347H614.304Z" fill="white"/>
<path d="M823.886 111.189V142.478C819.563 117.34 811.187 105.568 796.647 105.568C785.909 105.568 776.613 111.59 776.613 122.582C776.613 133.575 788.791 139.857 801.1 146.009C814.72 152.68 828.989 158.973 828.989 175.727C828.989 191.302 816.941 199.024 801.49 199.024C789.571 199.024 785.909 194.572 769.407 194.572V157.662C772.68 187.771 785.649 198.114 801.49 198.244C812.487 198.244 823.496 193.273 823.496 181.749C823.496 170.626 810.136 164.864 796.907 158.312C783.677 151.9 770.318 142.077 770.318 128.994C770.318 112.239 781.976 104.777 796.636 104.777C808.825 104.777 813.799 111.189 823.886 111.189Z" fill="white"/>
<path d="M232.553 158.745C232.553 141.796 232.813 124.716 233.203 115.196H232.683C228.771 129.925 214.155 168.785 203.721 197.345H192.896C185.073 174.135 169.807 130.456 165.765 114.936H165.375C166.025 125.496 166.415 145.575 166.415 161.225V197.345H155.071V106.597H172.938C183.242 134.756 195.898 171.135 199.029 182.616H199.159C201.38 173.875 216.246 134.106 226.94 106.597H244.287V197.345H232.553V158.745Z" fill="white"/>
<path d="M415.979 106.597H450.413C468.02 106.597 480.155 116.507 480.155 133.066C480.155 150.666 467.37 160.056 449.633 160.056H428.114V197.345H415.979V106.597ZM428.114 149.886H449.112C461.508 149.886 467.77 143.886 467.77 133.326C467.77 122.247 460.208 116.767 449.503 116.767H428.114V149.886Z" fill="white"/>
<path d="M757.814 154.857H712.859V186.807H762.235L760.674 197.063H701.168V106.672H760.024V116.929H712.859V144.59H757.814V154.857Z" fill="white"/>
<path d="M354.577 172.045C357.058 182.995 364.491 188.865 377.666 188.865C391.752 188.865 397.364 182.215 397.364 173.605C397.364 164.475 392.933 159.395 374.795 155.085C353.396 149.865 345.963 142.565 345.963 129.785C345.963 116.225 355.877 105.276 376.095 105.276C397.754 105.276 406.618 117.796 407.929 129.655H395.663C393.962 121.705 389.011 115.055 375.705 115.055C364.621 115.055 358.488 120.005 358.488 128.615C358.488 137.095 363.581 140.485 379.487 144.395C405.317 150.655 409.879 160.695 409.879 172.424C409.879 187.024 399.055 198.504 376.875 198.504C354.046 198.504 344.262 185.984 342.312 172.034H354.577V172.045Z" fill="white"/>
<path d="M642.746 157.359V197.118H630.914V106.683H666.268C684.861 106.683 694.743 116.821 694.743 130.857C694.743 142.684 687.982 149.832 679.271 152.171C686.682 154.121 693.053 159.709 693.053 175.305V179.204C693.053 185.442 692.793 193.37 694.353 197.139H682.651C680.961 193.24 681.091 186.222 681.091 177.644V175.825C681.091 162.958 677.45 157.37 661.198 157.37H642.746V157.359ZM642.746 147.222H662.379C676.291 147.222 682.272 142.023 682.272 131.886C682.272 122.268 676.031 116.81 663.809 116.81H642.746V147.222Z" fill="white"/>
</svg>
